<?xml version="1.0" encoding="UTF-8" standalone="no"?>
<!-- Created with Inkscape (http://www.inkscape.org/) -->

<svg
   version="1.1"
   id="svg2"
   width="3360"
   height="3360"
   viewBox="0 0 3360 3360"
   sodipodi:docname="vecteezy_energetic-cartoon-battery-character_59466988.inkscape.svg"
   inkscape:export-filename="vecteezy_energetic-cartoon-battery-character_59466988.eps.png"
   inkscape:export-xdpi="96"
   inkscape:export-ydpi="96"
   inkscape:version="1.2.2 (b0a8486541, 2022-12-01)"
   xmlns:inkscape="http://www.inkscape.org/namespaces/inkscape"
   xmlns:sodipodi="http://sodipodi.sourceforge.net/DTD/sodipodi-0.dtd"
   xmlns="http://www.w3.org/2000/svg"
   xmlns:svg="http://www.w3.org/2000/svg">
  <defs
     id="defs6">
    <clipPath
       clipPathUnits="userSpaceOnUse"
       id="clipPath46">
      <path
         d="m 9351.35,19895.8 c 212.01,103.4 626.11,182.1 858.75,235.3 1585.6,362.6 3318,554.7 4941.9,386.9 9.2,-108.2 19.4,-215 37.1,-322.3 l -25,-1 c -114.5,-3.4 -236.6,17.6 -351,26.7 -171.3,12.4 -342.7,20 -514.3,22.5 -999.9,15.5 -2010.6,-42.3 -2994.4,-227.7 -192.8,-36.3 -397.7,-59.5 -573.1,-151.9 -360.1,-258 -624.7,-489.6 -710.1,-943.7 -0.8,-4.2 -1.3,-8.5 -2,-12.8 533.2,16.8 1172.2,-336.2 1552.7,-697.1 57.9,-55.3 111.2,-114.7 159.9,-178.2 23.2,-28.1 44.1,-54.1 61.4,-86.5 -622.7,74.4 -1440.9,206.3 -1971.96,-216.8 -38.83,-31.4 -75.75,-64.9 -110.77,-100.5 -35.01,-35.6 -67.88,-73.1 -98.63,-112.4 8.99,-163.7 15.92,-346 76.39,-500.4 -334.59,-426.7 -469.62,-968.1 -402.22,-1505.6 55.25,-440.6 221.12,-748.2 485.57,-1092.2 -25.91,-152.6 45.77,-356.1 66.55,-512.8 64.77,-488.3 113.25,-979.8 190.77,-1466.2 52.2,-327.8 139.1,-654.9 174.7,-984.5 -304.47,78.8 -638.86,175.5 -903.98,347.1 -105.16,58.2 -206.58,122.4 -304.24,192.4 -97.67,70.1 -190.93,145.6 -279.79,226.5 -63.12,402 -90.41,809.8 -133.19,1214.4 l -208.09,1834.9 -294.77,2451.5 c -47.92,396.7 -106.22,794.2 -140.67,1192.3 -6.57,75.9 -19.84,200.6 18.16,267.7 202.14,357.2 1006.9,590.8 1394.32,714.4 z"
         id="path44" />
    </clipPath>
    <linearGradient
       x1="0"
       y1="0"
       x2="1"
       y2="0"
       gradientUnits="userSpaceOnUse"
       gradientTransform="matrix(-3349.43,152.056,-152.056,-3349.43,11663.1,16041.7)"
       spreadMethod="pad"
       id="linearGradient52">
      <stop
         style="stop-opacity:1;stop-color:#3e61b6"
         offset="0"
         id="stop48" />
      <stop
         style="stop-opacity:1;stop-color:#5b95d6"
         offset="1"
         id="stop50" />
    </linearGradient>
    <clipPath
       clipPathUnits="userSpaceOnUse"
       id="clipPath84">
      <path
         d="m 15818.6,14596.2 18.6,4.5 c 32.8,41.1 46,131.9 51.2,184 0.4,3.3 0.6,6.7 0.9,10.1 21.3,-75.6 17.4,-145 24,-222.3 8.5,51.6 8,105.5 10.2,157.8 68.8,-371.8 -99.2,-1130.9 -239.2,-1485.3 -40.6,-100.5 -86.8,-198.4 -138.4,-293.7 -51.6,-95.4 -108.5,-187.5 -170.5,-276.4 -439.2,-633.6 -1078.6,-1056.8 -1839.4,-1189.7 -707.5,-123.6 -1409.4,18 -1998.7,434.7 -484.3,342.4 -811.8,872.7 -988.3,1431.4 1352.4,-256.6 2887.1,-135.1 4155.8,408.8 241.6,103.6 497.5,226.4 714.3,374.8 69.3,47.4 153.4,104.2 201.4,174.4 81.9,91.2 137.7,180.2 198.1,286.9 z"
         id="path82" />
    </clipPath>
    <linearGradient
       x1="0"
       y1="0"
       x2="1"
       y2="0"
       gradientUnits="userSpaceOnUse"
       gradientTransform="matrix(-1922.52,2808.16,-2808.16,-1922.52,14595.4,11940.8)"
       spreadMethod="pad"
       id="linearGradient90">
      <stop
         style="stop-opacity:1;stop-color:#251312"
         offset="0"
         id="stop86" />
      <stop
         style="stop-opacity:1;stop-color:#151312"
         offset="1"
         id="stop88" />
    </linearGradient>
    <clipPath
       clipPathUnits="userSpaceOnUse"
       id="clipPath108">
      <path
         d="m 15519.2,14008.6 c -204.5,-226 -651.8,-661.8 -914.8,-798.4 -684.1,-504.8 -1893.6,-633.3 -2719.6,-508.6 -318.2,48 -533.8,139.6 -746.5,384 558.1,-26.7 1106,-43.9 1663.3,8.6 232.7,21.9 460.8,61.6 691.7,95.6 533.6,129.7 1076.9,261.4 1562,527.3 160.4,87.9 307.4,197.1 463.9,291.5 z"
         id="path106" />
    </clipPath>
    <linearGradient
       x1="0"
       y1="0"
       x2="1"
       y2="0"
       gradientUnits="userSpaceOnUse"
       gradientTransform="matrix(-126.449,-1559.45,1559.45,-126.449,13377.4,14147.6)"
       spreadMethod="pad"
       id="linearGradient114">
      <stop
         style="stop-opacity:1;stop-color:#8d8b8f"
         offset="0"
         id="stop110" />
      <stop
         style="stop-opacity:1;stop-color:#ffffff"
         offset="1"
         id="stop112" />
    </linearGradient>
    <clipPath
       clipPathUnits="userSpaceOnUse"
       id="clipPath152">
      <path
         d="m 12769.3,21679.9 c 873.1,146.3 2118.9,6.4 2976.1,-221.9 214.8,-57.2 452.6,-116.2 635.8,-246.3 155.8,-110.8 254.5,-287.1 283.9,-474.4 16.9,-107.3 14.5,-226.1 -3.5,-333 -839.4,230.3 -1508.7,326.1 -2383.8,351.1 -1581.4,45.2 -3731.5,-278.8 -5229.17,-781.5 -290.83,-97.5 -588.95,-200.7 -857.1,-351.8 -62.97,-35.2 -123.57,-74.1 -181.81,-116.7 -58.24,-42.5 -113.7,-88.4 -166.39,-137.7 -48.65,106.1 -94.74,210.1 -117.41,325.2 -5.11,62.5 -3.42,115.6 4.21,177.9 25.57,128.6 85.79,244.2 168.11,345.5 455.25,560.4 1869.7,991.3 2571.56,1141.6 561.6,120.2 1138.4,190.9 1709.1,252.1 195.8,29 392.8,57.1 590.4,69.9 z"
         id="path150" />
    </clipPath>
    <linearGradient
       x1="0"
       y1="0"
       x2="1"
       y2="0"
       gradientUnits="userSpaceOnUse"
       gradientTransform="matrix(-861.501,-3275.41,3275.41,-861.501,12672.8,21953.5)"
       spreadMethod="pad"
       id="linearGradient158">
      <stop
         style="stop-opacity:1;stop-color:#a39186"
         offset="0"
         id="stop154" />
      <stop
         style="stop-opacity:1;stop-color:#bcb5a5"
         offset="1"
         id="stop156" />
    </linearGradient>
    <clipPath
       clipPathUnits="userSpaceOnUse"
       id="clipPath182">
      <path
         d="m 13033.5,23418.8 c 275.9,-119.4 498.7,-298.9 613.3,-584 105.1,-261.4 127.2,-637.3 137,-919.6 -342.9,2.4 -681.3,-3.8 -1023.6,-29.5 -200,-15 -412.9,-53.6 -612.4,-52.9 l 4.6,21 26.2,-0.9 7.1,7.8 -72.6,68.8 c 26.5,64.9 74.6,126.9 96.7,189.4 l -54.1,9.9 c 308.5,36.7 620.3,20 926.4,80.6 0.4,212.3 -57.2,424.8 -51.2,635.9 51.7,81.6 9.5,269.7 -2,367 -2.7,68.1 2.5,138.2 4.6,206.5 z"
         id="path180" />
    </clipPath>
    <linearGradient
       x1="0"
       y1="0"
       x2="1"
       y2="0"
       gradientUnits="userSpaceOnUse"
       gradientTransform="matrix(-1629.39,-472.947,472.947,-1629.39,13654.8,22738.4)"
       spreadMethod="pad"
       id="linearGradient188">
      <stop
         style="stop-opacity:1;stop-color:#7c5343"
         offset="0"
         id="stop184" />
      <stop
         style="stop-opacity:1;stop-color:#919092"
         offset="1"
         id="stop186" />
    </linearGradient>
    <clipPath
       clipPathUnits="userSpaceOnUse"
       id="clipPath276">
      <path
         d="m 17179.9,3970.1 c 586.9,590.3 1930.9,1473.1 2710.7,1800.6 31.7,-55.6 57.2,-115.1 84.3,-173 -98.5,-57.6 -196.6,-114.5 -298,-166.8 -85.3,-72.2 -193.8,-130.5 -289.1,-188.9 -227.8,-139.5 -464.4,-270.3 -685.7,-419.5 -250.3,-168.8 -500.8,-351.2 -739,-536.4 -118.6,-92.3 -231.1,-198 -353.1,-284.9 -113.5,-113.8 -248.9,-213.1 -370.2,-319.5 -28.3,15.1 -64.1,34.3 -80.5,62.8 -33.9,59.1 7.4,163.2 20.6,225.6 z"
         id="path274" />
    </clipPath>
    <linearGradient
       x1="0"
       y1="0"
       x2="1"
       y2="0"
       gradientUnits="userSpaceOnUse"
       gradientTransform="matrix(-195.677,300.795,-300.795,-195.677,18611,4625.2)"
       spreadMethod="pad"
       id="linearGradient282">
      <stop
         style="stop-opacity:1;stop-color:#cccac8"
         offset="0"
         id="stop278" />
      <stop
         style="stop-opacity:1;stop-color:#ffffff"
         offset="1"
         id="stop280" />
    </linearGradient>
    <clipPath
       clipPathUnits="userSpaceOnUse"
       id="clipPath296">
      <path
         d="m 7906.34,2391.7 8.98,76.4 c 17.77,19 23.77,29 50.99,32.9 56.58,8.1 386.54,-33.3 471.61,-38.7 875.41,-56.1 1792.38,-4 2656.18,148.9 l 67.5,-9.1 0.4,-10.5 -11.4,9.4 5.2,-19.2 -21.1,23.9 5.2,-33.1 c -182.2,-65.2 -389.6,-88.7 -580.5,-118.6 -227.3,-35.6 -455.8,-75.7 -684.78,-98.8 -447.35,-45.1 -902.13,-41.4 -1350.91,-20.3 -206.74,9.7 -414.25,13.8 -617.37,56.8 z"
         id="path294" />
    </clipPath>
    <linearGradient
       x1="0"
       y1="0"
       x2="1"
       y2="0"
       gradientUnits="userSpaceOnUse"
       gradientTransform="matrix(-721.505,-1449,1449,-721.505,9894.72,3244.9)"
       spreadMethod="pad"
       id="linearGradient302">
      <stop
         style="stop-opacity:1;stop-color:#cbc4cf"
         offset="0"
         id="stop298" />
      <stop
         style="stop-opacity:1;stop-color:#ffffff"
         offset="1"
         id="stop300" />
    </linearGradient>
    <clipPath
       clipPathUnits="userSpaceOnUse"
       id="clipPath340">
      <path
         d="m 5545.65,7665 c 71.37,12.9 151.97,-59 236.55,-50.2 12.62,19.2 20.45,34.8 41.66,45.5 3.92,2 8.2,3.2 12.28,4.8 -55.3,-136.5 -133.55,-268.2 -202.31,-398.7 -149.99,-284.7 -306.29,-565.5 -460.49,-847.9 -84.43,-154.6 -221.51,-448.2 -318.17,-572.4 l 5.11,-9 -1.7,12.7 -19.46,-18.5 c -14.13,103.3 313.25,421 233.76,544.2 -27.39,1.4 -19.29,6.3 -37.08,-9.4 -97.06,-85.8 -280.08,-694.4 -354.4,-702.9 20.49,106.3 126.56,283.8 173.96,389.7 127.05,285.2 255.54,569.7 385.48,853.6 112.51,247.7 237.14,493.9 304.81,758.5 z"
         id="path338" />
    </clipPath>
    <linearGradient
       x1="0"
       y1="0"
       x2="1"
       y2="0"
       gradientUnits="userSpaceOnUse"
       gradientTransform="matrix(538.452,1271.52,-1271.52,538.452,5121.16,6350.1)"
       spreadMethod="pad"
       id="linearGradient346">
      <stop
         style="stop-opacity:1;stop-color:#cf711b"
         offset="0"
         id="stop342" />
      <stop
         style="stop-opacity:1;stop-color:#a35323"
         offset="1"
         id="stop344" />
    </linearGradient>
  </defs>
  <sodipodi:namedview
     id="namedview4"
     pagecolor="#ffffff"
     bordercolor="#000000"
     borderopacity="0.25"
     inkscape:showpageshadow="2"
     inkscape:pageopacity="0.0"
     inkscape:pagecheckerboard="0"
     inkscape:deskcolor="#d1d1d1"
     showgrid="false"
     inkscape:zoom="0.070238095"
     inkscape:cx="1345.4237"
     inkscape:cy="1687.1186"
     inkscape:window-width="1280"
     inkscape:window-height="921"
     inkscape:window-x="0"
     inkscape:window-y="24"
     inkscape:window-maximized="1"
     inkscape:current-layer="svg2">
    <inkscape:page
       x="0"
       y="0"
       id="page8"
       width="3360"
       height="3360"
       inkscape:export-filename="Page 1.png"
       inkscape:export-xdpi="96"
       inkscape:export-ydpi="96" />
  </sodipodi:namedview>
  <g
     id="g12"
     transform="matrix(0.13333333,0,0,-0.13333333,0,3360)"
     style="display:inline">
    <path
       d="M 0,25200 H 25200 V 0 H 0 v 25200"
       style="fill:none;fill-opacity:1;fill-rule:nonzero;stroke:none"
       id="path14" />
    <path
       d="m 10034.3,21616.8 c -109.4,563.1 -188.1,1027.5 154.6,1534 237.1,350.7 621.7,542.7 1029.2,618.7 257.6,48.1 521.7,70.9 782.9,87.6 520.1,33.1 1040.7,46.6 1488.2,-266.8 312.3,-218.6 518.3,-569.2 580.2,-942.9 32.5,-196.8 51.3,-397.4 74.6,-595.5 678.4,-51.2 2153,-164.7 2616,-704.1 173.2,-201.7 277.1,-487.3 256.3,-753.5 -11.7,-150.8 -83.3,-296.5 -90.7,-442.6 -6.4,-126 18.1,-260.7 31,-386.4 l 74,-714.8 175.5,-1609.3 c 37.7,-344.3 61.7,-697.1 121.6,-1038.1 141.7,196.6 250,427.2 379.1,633.7 207.9,332.3 436.6,655.6 652.5,983.3 536.1,815.6 1084.5,1622.8 1645.1,2421.8 343.6,502.5 694.8,999.5 1053.7,1491.1 -129.2,-381.1 -231.3,-769.5 -349.4,-1153.9 -280.4,-895.3 -546.2,-1795 -797.5,-2699 38.1,5 84.6,4 114.5,30.3 34.2,78.1 60.4,162.9 98.9,238.4 109.1,213.3 316.9,425.5 541.6,514.8 174.3,69.3 396.3,79.2 569.9,5.3 136.3,-58 253,-165.4 328.5,-292.4 210.2,53.2 434,42.9 623.5,-71.6 126.1,-76.2 234,-190.1 268.1,-336.9 3.7,-16.3 6.1,-32.3 8.5,-48.7 241.5,-10.5 454.1,-64.8 623.8,-248.1 156.5,-169 216.3,-382 204.2,-608.8 -30.9,-581.5 -452,-1557.8 -889.9,-1945.6 -100,-88.5 -213.9,-149.3 -331.4,-210.6 -22.5,-112.4 -36.5,-231.9 -71.2,-341 -147.5,-152.6 -359.9,-198.8 -558.9,-244.9 -80.8,-231.6 -159.4,-465.5 -259.3,-689.7 -310.2,-696.2 -814.6,-1417.3 -1514,-1757 -388.8,-188.9 -813.2,-252 -1239.5,-193.2 l -27.1,-13.2 c 44.1,-128.5 1809.3,-1890.5 2059.9,-2152.3 l 567.4,-598 c 100.9,-107.8 195.6,-224.6 301.2,-327.6 -218.6,-44.5 -1703.5,-307.2 -1758.4,-359.2 98.6,-141.8 191.5,-285.7 295.5,-423.9 149.2,-198.3 317.9,-393.5 441,-609.2 125.8,-113.2 280.6,-374.6 393,-518.4 348.2,-445.6 697.9,-891.4 1039.6,-1341.8 193.8,-255.5 373.7,-521.8 581.3,-766.5 -522.5,370.1 -1025.2,770.5 -1555.9,1128.8 -289.6,195.6 -576.3,400.2 -870.6,588 -333,212.5 -666,421.4 -994.3,641.3 -180.5,120.9 -386.2,237.7 -533,399.1 -380.2,-603.4 -964.8,-771.8 -1547.6,-1087.4 146.1,-162.2 306.1,-311 451.7,-473.9 200.9,328.3 471.4,543.9 850.6,634.9 499.8,119.8 1028.1,80.6 1470.3,-190.8 337.9,-207.5 619.6,-544.7 811.4,-890.5 -351.6,-171.7 -688.3,-382.5 -1018.3,-592.4 -583.4,-370.9 -1142.6,-759.1 -1675.8,-1200.4 -146.9,-119.3 -288.9,-244.2 -425.9,-374.7 -103,-97.7 -204.3,-208.6 -315.6,-295.9 -264.6,425.3 -493,768.8 -623.4,1265.5 -48,182.8 -31.6,450.7 -112.4,606.1 -179.2,344.2 -699.2,761.2 -1003.7,1023.3 -253.8,-49.8 -507,-105.6 -762.6,-145 -618.2,-95.3 -1273.4,-139.5 -1898.4,-127.4 -411.4,8 -816.8,57.1 -1226.5,73.9 -114.8,-195.4 -514.5,-898.7 -468.2,-1087 47.1,-192 223.2,-500.5 310.3,-694.9 158.4,-353.1 269.9,-694.2 361.8,-1069.2 31.2,-200 51.7,-401.1 61.6,-603.3 -957.2,-349.7 -2169.06,-432.6 -3178.81,-367.4 -205.06,13.2 -458.15,11.7 -646.36,101.8 -72.97,35 -124.99,77.9 -149.92,156.9 -30.86,97.8 -24.19,222.7 -28.45,324.9 -1.99,394.9 138.72,718.7 416.3,999.4 390.03,394.3 944.28,593.6 1491.37,598.1 -13.81,191.7 -41.59,385.3 -32.24,577.8 22.1,454.2 279.12,945.6 448.83,1366.7 -92.29,45.2 -195.86,76.4 -291.52,115 -313.26,126.7 -634.19,296 -802.07,604 -120.34,220.8 -108.92,436.4 -40.46,670.4 -397.88,-149.7 -599.58,-183.4 -1011.64,-87.7 -191.15,62.1 -314.95,183 -427.37,344.6 -180.06,300.1 -463.81,587.5 -577.93,920.7 -23.11,67.5 -32.88,141.5 -44.88,211.7 -107.33,71.7 -191.15,130.1 -248.56,252.3 -106.01,225.7 -53.26,496.8 31.48,719.3 -97.38,157.4 -168.68,312.8 -234.53,484.8 -30.84,79.9 -61.08,159.7 -88.23,241 -53.1,141.2 -99.01,284.7 -137.71,430.5 -28.82,92.2 -43.02,198 -59.31,293.5 -84.71,497 -59.43,984.4 139.66,1451.5 78.6,140.8 174.63,270.9 270.23,400.5 60.64,74.4 126.4,148.1 197.08,213 414.96,381.3 1025.33,532.3 1575.74,506.6 -14.7,257.9 -44.5,516.1 -69.92,773.1 -38.98,393.7 -79.51,790.4 -140.79,1181.4 l -16.17,140.9 c -25,172.2 -21.75,418.4 -57.86,572.6 -83.72,574.7 -156.89,1150.9 -219.51,1728.4 -36.99,326.2 -61.92,661.1 -115.39,984.5 -35.1,212.2 -187.53,324.2 -191.96,598.8 -3.37,209.6 58.3,400.4 184.13,568.3 383.36,511.4 1106.37,755.1 1685.16,970.8 265.7,99 522.65,200.7 798.51,269.7"
       style="fill:#110f0d;fill-opacity:1;fill-rule:nonzero;stroke:none"
       id="path16" />
    <path
       d="m 17795.9,12034.2 c 207.3,-77.3 404.5,-104.3 618.2,-150.4 4.8,-1.1 9.6,-2.3 14.4,-3.4 l -27.1,-13.2 c 44.1,-128.5 1809.3,-1890.5 2059.9,-2152.3 l 567.4,-598 c 100.9,-107.8 195.6,-224.6 301.2,-327.6 -218.6,-44.5 -1703.5,-307.2 -1758.4,-359.2 98.6,-141.8 191.5,-285.7 295.5,-423.9 149.2,-198.3 317.9,-393.5 441,-609.2 125.8,-113.2 280.6,-374.6 393,-518.4 348.2,-445.6 697.9,-891.4 1039.6,-1341.8 193.8,-255.5 373.7,-521.8 581.3,-766.5 -522.5,370.1 -1025.2,770.5 -1555.9,1128.8 -289.6,195.6 -576.3,400.2 -870.6,588 -333,212.5 -666,421.4 -994.3,641.3 -180.5,120.9 -386.2,237.7 -533,399.1 95.2,178.7 125.6,340.3 131.3,541.3 -0.9,19.9 -2.1,39.9 -3.9,59.8 -23.8,283.5 -91.8,440.2 -313,624.2 -15.5,98.1 -27.4,196.4 -38.7,295.1 -14.2,41.9 -13,101.2 -17.8,145.9 -44.9,501.3 -111.2,1001.6 -167.7,1501.7 -24.8,85.4 -26.4,196.3 -35.2,285.8 -20,204.2 -35.5,409.2 -64.2,612.3 -30.5,116.9 -43.4,312.5 -63,440.6"
       style="fill:#f8a80e;fill-opacity:1;fill-rule:nonzero;stroke:none"
       id="path18" />
    <path
       d="m 17795.9,12034.2 c 207.3,-77.3 404.5,-104.3 618.2,-150.4 4.8,-1.1 9.6,-2.3 14.4,-3.4 l -27.1,-13.2 c 44.1,-128.5 1809.3,-1890.5 2059.9,-2152.3 l 567.4,-598 c 100.9,-107.8 195.6,-224.6 301.2,-327.6 -218.6,-44.5 -1703.5,-307.2 -1758.4,-359.2 -5.2,-90 159.5,-285.3 213.5,-363.6 -18.9,-82 -30,-171.4 -76,-242.8 l -25.8,-9.5 c -96.3,44.9 -194.3,285.3 -337,356 -174.3,196.6 -331.5,409.8 -516.7,596.5 520.8,96.2 1062.8,174.7 1574.1,311 -293.9,338.9 -631,648.7 -944.1,970.7 -370.7,381.3 -747.8,752.8 -1125.6,1127 -138.7,137.3 -270.2,291.8 -412.7,423.2 -17.3,15.9 -28.4,26 -52.1,30.4 l -10.2,-35.4 c -30.5,116.9 -43.4,312.5 -63,440.6"
       style="fill:#834227;fill-opacity:1;fill-rule:nonzero;stroke:none"
       id="path20" />
    <path
       d="m 17958.3,10695.5 c 19,26.2 18.5,29.4 49.3,37.7 90.8,-29.7 197.4,-182.7 260,-253 370.7,-416 715.1,-831.2 969.3,-1330.5 19.1,-37.8 37.8,-75.8 56,-114 -214.9,-37 -583.8,-46.7 -787.8,29.5 -130.9,48.9 -236,117.3 -379.1,128.6 -44.9,501.3 -111.2,1001.6 -167.7,1501.7"
       style="fill:#f8da0c;fill-opacity:1;fill-rule:nonzero;stroke:none"
       id="path22" />
    <path
       d="m 18143.8,9047.9 25,16.5 c 34.8,-8 51.8,-21.2 75.7,-48.1 47.4,-53.4 86.1,-117 132.2,-172.5 127.3,-150.5 257.2,-298.8 389.7,-444.9 159,-174.4 339.5,-331.4 490,-513 150.4,-181.4 301.3,-376.3 425.5,-576.4 46.8,-75.2 89.2,-161.8 143.4,-231.4 26.2,-33.5 90.6,-83.9 100.3,-121.9 -52.4,-1.1 -774.1,612.9 -897.2,703.1 -99.7,73.9 -203,142.5 -309.8,205.7 -66.2,38.8 -142.4,70.4 -203.8,115.4 l -1.7,22.1 c -1.7,20.5 -1.7,49.4 -13.7,66.3 -0.9,19.9 -2.1,39.9 -3.9,59.8 -23.8,283.5 -91.8,440.2 -313,624.2 -15.5,98.1 -27.4,196.4 -38.7,295.1"
       style="fill:#f8da0c;fill-opacity:1;fill-rule:nonzero;stroke:none"
       id="path24" />
    <path
       d="m 19571.5,8430.1 c 98.6,-141.8 191.5,-285.7 295.5,-423.9 149.2,-198.3 317.9,-393.5 441,-609.2 l -20.4,-4.8 c -111.7,168.5 -237.3,322.7 -354.9,486 -10.6,14.7 -18.7,25.7 -31.9,38.7 -4.1,-61.1 -56.7,-269.4 -53.7,-296.3 5.3,-46.4 169.8,-238.2 211.7,-279.8 15.5,-15.3 30,-29.6 43.1,-47 15.7,-20.7 12.4,-9.4 8.7,-36 -136.9,140.3 -251,308 -376.8,458.9 -127.1,152.3 -268.2,295.4 -387.6,453.5 142.7,-70.7 240.7,-311.1 337,-356 l 25.8,9.5 c 46,71.4 57.1,160.8 76,242.8 -54,78.3 -218.7,273.6 -213.5,363.6"
       style="fill:#ce701c;fill-opacity:1;fill-rule:nonzero;stroke:none"
       id="path26" />
    <path
       d="m 17327.7,16403.1 c 141.7,196.6 250,427.2 379.1,633.7 207.9,332.3 436.6,655.6 652.5,983.3 536.1,815.6 1084.5,1622.8 1645.1,2421.8 343.6,502.5 694.8,999.5 1053.7,1491.1 -129.2,-381.1 -231.3,-769.5 -349.4,-1153.9 -280.4,-895.3 -546.2,-1795 -797.5,-2699 -231.6,-40.8 -427.3,-87.8 -615,-235.1 -185.8,-206.7 -230.1,-433.8 -216.7,-705.6 9.7,-196.1 42.1,-402.4 96.5,-591.2 70.5,-198.8 169.6,-380.9 292.2,-552.4 -89.1,-227.1 -917,-2687.3 -899.2,-2777.3 l 33.2,-11.1 c -113.3,-29 -410.9,29.1 -529.6,61.5 -82.4,32.8 -162.1,69.7 -242.2,107.8 -58.4,25.8 -113.8,57.3 -169.9,87.8 -118.2,742.3 -171.4,1499.6 -265.9,2245.8 -28.2,229.9 -45.5,462.1 -66.9,692.8"
       style="fill:#f9d628;fill-opacity:1;fill-rule:nonzero;stroke:none"
       id="path28" />
    <path
       d="m 17327.7,16403.1 c 141.7,196.6 250,427.2 379.1,633.7 207.9,332.3 436.6,655.6 652.5,983.3 536.1,815.6 1084.5,1622.8 1645.1,2421.8 343.6,502.5 694.8,999.5 1053.7,1491.1 -129.2,-381.1 -231.3,-769.5 -349.4,-1153.9 -280.4,-895.3 -546.2,-1795 -797.5,-2699 -231.6,-40.8 -427.3,-87.8 -615,-235.1 42.6,328.3 197,693.3 300.8,1008.3 113.3,344 204.4,711.3 366.3,1036.4 l 7.4,14.3 c -157.6,-176.2 -257.7,-433.6 -376.1,-639.6 -159.4,-277.1 -345.8,-549.2 -478.2,-839.8 -339.2,-533.4 -671.5,-1071.1 -996.9,-1613.1 -138.4,-229.5 -281.7,-454.6 -424.7,-681.3 -73.9,-117.1 -143.7,-243 -224.7,-355.1 -21.2,-29.2 -43.3,-48.2 -75.5,-64.8 -28.2,229.9 -45.5,462.1 -66.9,692.8"
       style="fill:#f8a80e;fill-opacity:1;fill-rule:nonzero;stroke:none"
       id="path30" />
    <path
       d="m 19116.4,18424.6 c 35.6,-173.8 -564.6,-2133 -651.5,-2445.5 -109.8,-394.9 -214.4,-794.1 -309.8,-1192.8 -79.1,-330.1 -152.8,-661.9 -226.5,-993.2 -26.3,-117.9 -45.6,-316.8 -98.2,-416.4 -58.4,25.8 -113.8,57.3 -169.9,87.8 -118.2,742.3 -171.4,1499.6 -265.9,2245.8 32.2,16.6 54.3,35.6 75.5,64.8 81,112.1 150.8,238 224.7,355.1 143,226.7 286.3,451.8 424.7,681.3 325.4,542 657.7,1079.7 996.9,1613.1"
       style="fill:#f8da0c;fill-opacity:1;fill-rule:nonzero;stroke:none"
       id="path32" />
    <path
       d="m 19176,16548.2 c 70.5,-198.8 169.6,-380.9 292.2,-552.4 -89.1,-227.1 -917,-2687.3 -899.2,-2777.3 l 33.2,-11.1 c -113.3,-29 -410.9,29.1 -529.6,61.5 50.6,112.2 84.8,239.1 124.8,355.8 106.3,309.3 204.6,621 308.9,930.9 105.1,312.2 207.7,625.5 316.7,936.4 123.2,351.5 251,697.5 353,1056.2"
       style="fill:#834227;fill-opacity:1;fill-rule:nonzero;stroke:none"
       id="path34" />
    <path
       d="m 18602.2,13207.4 -33.2,11.1 c -17.8,90 810.1,2550.2 899.2,2777.3 47.1,-62.7 95.9,-124.5 135.9,-192.1 -72.2,-147.1 -122.9,-292.5 -65.9,-455.6 57.6,-165 200.9,-292.3 327,-406.3 -59.6,-545.4 -229.8,-1140.2 -674.8,-1495 -178.1,-142 -365,-208.2 -588.2,-239.4"
       style="fill:#ffffff;fill-opacity:1;fill-rule:nonzero;stroke:none"
       id="path36" />
    <path
       d="m 9351.35,19895.8 c 212.01,103.4 626.11,182.1 858.75,235.3 1585.6,362.6 3318,554.7 4941.9,386.9 482.6,-48.5 938.6,-136 1405,-268.6 29.7,-482.8 114.3,-959.2 165.7,-1439.9 l 452.3,-4022.3 c 59.7,-542.6 163.7,-1086.9 178.1,-1633.3 -112.5,-132.6 -223.7,-266.1 -344.8,-391 -203.9,-227.4 -492.6,-406 -747.9,-570.5 -1591.1,-967.6 -4033.5,-1231.6 -5827.3,-795.5 -76.7,18.6 -153.2,37.8 -229.5,57.7 -304.47,78.8 -638.86,175.5 -903.98,347.1 -105.16,58.2 -206.58,122.4 -304.24,192.4 -97.67,70.1 -190.93,145.6 -279.79,226.5 -63.12,402 -90.41,809.8 -133.19,1214.4 l -208.09,1834.9 -294.77,2451.5 c -47.92,396.7 -106.22,794.2 -140.67,1192.3 -6.57,75.9 -19.84,200.6 18.16,267.7 202.14,357.2 1006.9,590.8 1394.32,714.4"
       style="fill:#5791d4;fill-opacity:1;fill-rule:nonzero;stroke:none"
       id="path38" />
    <g
       id="g40"
       style="display:inline">
      <g
         id="g42"
         clip-path="url(#clipPath46)">
        <path
           d="m 9351.35,19895.8 c 212.01,103.4 626.11,182.1 858.75,235.3 1585.6,362.6 3318,554.7 4941.9,386.9 9.2,-108.2 19.4,-215 37.1,-322.3 l -25,-1 c -114.5,-3.4 -236.6,17.6 -351,26.7 -171.3,12.4 -342.7,20 -514.3,22.5 -999.9,15.5 -2010.6,-42.3 -2994.4,-227.7 -192.8,-36.3 -397.7,-59.5 -573.1,-151.9 -360.1,-258 -624.7,-489.6 -710.1,-943.7 -0.8,-4.2 -1.3,-8.5 -2,-12.8 533.2,16.8 1172.2,-336.2 1552.7,-697.1 57.9,-55.3 111.2,-114.7 159.9,-178.2 23.2,-28.1 44.1,-54.1 61.4,-86.5 -622.7,74.4 -1440.9,206.3 -1971.96,-216.8 -38.83,-31.4 -75.75,-64.9 -110.77,-100.5 -35.01,-35.6 -67.88,-73.1 -98.63,-112.4 8.99,-163.7 15.92,-346 76.39,-500.4 -334.59,-426.7 -469.62,-968.1 -402.22,-1505.6 55.25,-440.6 221.12,-748.2 485.57,-1092.2 -25.91,-152.6 45.77,-356.1 66.55,-512.8 64.77,-488.3 113.25,-979.8 190.77,-1466.2 52.2,-327.8 139.1,-654.9 174.7,-984.5 -304.47,78.8 -638.86,175.5 -903.98,347.1 -105.16,58.2 -206.58,122.4 -304.24,192.4 -97.67,70.1 -190.93,145.6 -279.79,226.5 -63.12,402 -90.41,809.8 -133.19,1214.4 l -208.09,1834.9 -294.77,2451.5 c -47.92,396.7 -106.22,794.2 -140.67,1192.3 -6.57,75.9 -19.84,200.6 18.16,267.7 202.14,357.2 1006.9,590.8 1394.32,714.4"
           style="fill:url(#linearGradient52);fill-opacity:1;fill-rule:nonzero;stroke:none"
           id="path54" />
      </g>
    </g>
    <path
       d="m 9351.35,19895.8 c 212.01,103.4 626.11,182.1 858.75,235.3 1585.6,362.6 3318,554.7 4941.9,386.9 9.2,-108.2 19.4,-215 37.1,-322.3 l -25,-1 c -114.5,-3.4 -236.6,17.6 -351,26.7 -171.3,12.4 -342.7,20 -514.3,22.5 -999.9,15.5 -2010.6,-42.3 -2994.4,-227.7 -192.8,-36.3 -397.7,-59.5 -573.1,-151.9 -360.1,-258 -624.7,-489.6 -710.1,-943.7 -0.8,-4.2 -1.3,-8.5 -2,-12.8 -238.71,-57.8 -350.95,-165.4 -479.05,-367.5 -73.38,116.7 -109.41,600.7 -124.32,754.2 -7.36,75.9 -3.33,181.4 -35.44,250.2 -328.39,-113.3 -724.72,-271 -959.33,-537.9 78.73,-395.8 102.92,-810.3 153.91,-1211 l 356.81,-2927.7 298.88,-2431 c 21.1,-186.6 88.72,-459.4 68.96,-635.4 -105.16,58.2 -206.58,122.4 -304.24,192.4 -97.67,70.1 -190.93,145.6 -279.79,226.5 -63.12,402 -90.41,809.8 -133.19,1214.4 l -208.09,1834.9 -294.77,2451.5 c -47.92,396.7 -106.22,794.2 -140.67,1192.3 -6.57,75.9 -19.84,200.6 18.16,267.7 202.14,357.2 1006.9,590.8 1394.32,714.4"
       style="fill:#b8ddf5;fill-opacity:1;fill-rule:nonzero;stroke:none"
       id="path56" />
    <path
       d="m 9391.26,19546.1 c 92.29,48.6 1082.54,294 1232.24,319.9 37.3,6.5 70.8,4.3 107.8,-1.7 -360.1,-258 -624.7,-489.6 -710.1,-943.7 -0.8,-4.2 -1.3,-8.5 -2,-12.8 -238.71,-57.8 -350.95,-165.4 -479.05,-367.5 -73.38,116.7 -109.41,600.7 -124.32,754.2 -7.36,75.9 -3.33,181.4 -35.44,250.2 l 10.87,1.4"
       style="fill:#88c6ee;fill-opacity:1;fill-rule:nonzero;stroke:none"
       id="path58" />
    <path
       d="m 10019.2,18907.8 c 533.2,16.8 1172.2,-336.2 1552.7,-697.1 57.9,-55.3 111.2,-114.7 159.9,-178.2 -144.4,14.2 -396.7,115.1 -573.5,143.4 -478.7,76.5 -966.2,45.6 -1369.05,-248.7 -391.36,-285.9 -591.98,-744.6 -662.98,-1212.3 -13.36,142.9 -2.14,290.9 9.18,433.9 42.01,531.2 161.34,923.8 404.7,1391.5 128.1,202.1 240.34,309.7 479.05,367.5"
       style="fill:#110f0d;fill-opacity:1;fill-rule:nonzero;stroke:none"
       id="path60" />
    <path
       d="m 9465.54,18126.1 c 33.64,104.3 83.42,206.6 134.19,303.4 77.94,148.8 181.84,336.5 354.89,385.7 314.58,89.2 895.98,-234.2 1164.68,-391.8 98,-53 192,-112.2 282,-177.9 -576.1,87.9 -1174.4,135.8 -1671.14,-227.6 -167.04,-122.2 -278.33,-288 -434.28,-416.5 49.59,171.6 93.54,362.9 169.66,524.7"
       style="fill:#151b29;fill-opacity:1;fill-rule:nonzero;stroke:none"
       id="path62" />
    <path
       d="m 9465.54,18126.1 c 33.64,104.3 83.42,206.6 134.19,303.4 77.94,148.8 181.84,336.5 354.89,385.7 314.58,89.2 895.98,-234.2 1164.68,-391.8 -80,-30.5 -300.7,60.9 -395.1,75.1 -165.5,24.8 -334.2,28.2 -499.4,0.6 -159.5,-26.7 -319.2,-77.6 -459.84,-158.1 -64.11,-36.7 -247.94,-210.7 -299.42,-214.9"
       style="fill:#28429d;fill-opacity:1;fill-rule:nonzero;stroke:none"
       id="path64" />
    <path
       d="m 13008.5,16016.8 -5.4,-12.5 c -15.6,16.9 -19.2,67.1 -23.6,91.9 -73.2,413 28.4,830.7 267.8,1173.5 239.3,342.7 586.1,558.3 998.3,627.2 495.4,82.9 905.8,-77.8 1303.2,-362.2 438.7,-456.5 701.5,-891.4 687.6,-1550.4 -5.2,-246 -54.7,-507.9 -156.4,-732.6 -37.2,-82.1 -95.9,-169.8 -124.3,-252.6 l -68.1,-94.6 c 13.1,-57.1 30.8,-115.9 35.9,-174.2 -2.2,-52.3 -1.7,-106.2 -10.2,-157.8 -6.6,77.3 -2.7,146.7 -24,222.3 -0.3,-3.4 -0.5,-6.8 -0.9,-10.1 -5.2,-52.1 -18.4,-142.9 -51.2,-184 l -18.6,-4.5 c -60.4,-106.7 -116.2,-195.7 -198.1,-286.9 -22.6,92 -23.3,197.1 -32.7,291.8 -259.5,-174.2 -523.5,-297.8 -841.2,-309.3 -421.3,-15.4 -809.9,174.4 -1110.7,460.5 -139.2,132.4 -458,505.4 -463.5,701.5 -55.8,131 -103.8,264.8 -135.4,403.8 -10.9,47.9 -12.6,97.5 -24.4,144.9 -1.2,4.8 -2.7,9.5 -4.1,14.3"
       style="fill:#ffffff;fill-opacity:1;fill-rule:nonzero;stroke:none"
       id="path66" />
    <path
       d="m 13008.5,16016.8 -5.4,-12.5 c -15.6,16.9 -19.2,67.1 -23.6,91.9 -73.2,413 28.4,830.7 267.8,1173.5 239.3,342.7 586.1,558.3 998.3,627.2 495.4,82.9 905.8,-77.8 1303.2,-362.2 438.7,-456.5 701.5,-891.4 687.6,-1550.4 -5.2,-246 -54.7,-507.9 -156.4,-732.6 -37.2,-82.1 -95.9,-169.8 -124.3,-252.6 l -68.1,-94.6 c 13.1,-57.1 30.8,-115.9 35.9,-174.2 -2.2,-52.3 -1.7,-106.2 -10.2,-157.8 -6.6,77.3 -2.7,146.7 -24,222.3 -0.3,-3.4 -0.5,-6.8 -0.9,-10.1 -5.2,-52.1 -18.4,-142.9 -51.2,-184 l -18.6,-4.5 c -60.4,-106.7 -116.2,-195.7 -198.1,-286.9 -22.6,92 -23.3,197.1 -32.7,291.8 -259.5,-174.2 -523.5,-297.8 -841.2,-309.3 -421.3,-15.4 -809.9,174.4 -1110.7,460.5 -139.2,132.4 -458,505.4 -463.5,701.5 171.9,-327.9 463.4,-698.7 816.8,-843.8 73.2,14.2 163.8,5.2 239,6 236.1,2.6 462.9,9.7 689.6,83.8 359.6,117.5 710,384.5 895.7,717 70,125.5 113.5,260.2 179,385.8 l 5.3,10.1 c 15.9,86 17.4,178.6 16.1,266 -0.2,29.6 -1.2,59.2 -2.9,88.7 -1.7,29.6 -4.1,59.1 -7.3,88.5 -3.1,29.5 -7,58.8 -11.6,88.1 -4.7,29.3 -10,58.4 -16.1,87.4 -6,28.9 -12.8,57.8 -20.3,86.4 -7.5,28.7 -15.7,57.1 -24.6,85.4 -8.9,28.2 -18.5,56.2 -28.8,84 -10.3,27.8 -21.3,55.3 -33,82.5 -11.6,27.2 -24,54.1 -37,80.7 -13,26.6 -26.6,52.9 -40.9,78.9 -14.3,25.9 -29.3,51.5 -44.8,76.6 -15.6,25.2 -31.8,50 -48.6,74.4 -16.8,24.4 -34.2,48.4 -52.2,71.9 -18,23.5 -36.5,46.6 -55.7,69.2 -19.1,22.6 -38.8,44.7 -59,66.3 -20.3,21.7 -41,42.8 -62.3,63.4 -266.8,257.6 -624.1,410.1 -996.9,400.1 -391.7,-10.5 -736.1,-178.4 -1002,-463.1 -315.3,-337.6 -475.7,-812.5 -461.4,-1271.3"
       style="fill:#110f0d;fill-opacity:1;fill-rule:nonzero;stroke:none"
       id="path68" />
    <path
       d="m 13989.2,14610 c 73.2,14.2 163.8,5.2 239,6 236.1,2.6 462.9,9.7 689.6,83.8 359.6,117.5 710,384.5 895.7,717 70,125.5 113.5,260.2 179,385.8 l 5.3,10.1 c -21.9,-402.1 -181.3,-792.3 -484.4,-1064.3 -260.7,-234 -603.6,-340.7 -950.8,-319.3 -192.3,11.8 -412.3,73 -573.4,180.9"
       style="fill:#a5b2c3;fill-opacity:1;fill-rule:nonzero;stroke:none"
       id="path70" />
    <path
       d="m 15874.2,14881.4 c -9.8,-99 -25.9,-190.2 -55.6,-285.2 -60.4,-106.7 -116.2,-195.7 -198.1,-286.9 -22.6,92 -23.3,197.1 -32.7,291.8 108.9,84.7 197.5,174.6 286.4,280.3"
       style="fill:#3d63b7;fill-opacity:1;fill-rule:nonzero;stroke:none"
       id="path72" />
    <path
       d="m 14139.1,16817.5 c 156.7,10.6 297.6,-22.5 432.9,-101.2 238.6,-138.8 399.3,-407.4 465.5,-670.1 63.9,-253.5 31.4,-522.1 -105.4,-746.5 -105.6,-173.3 -245,-276.8 -442.7,-323.7 -171.4,-12.4 -321.4,-7.8 -475.4,82.3 -233.6,136.6 -381.4,394.8 -444.4,651.6 -63.6,259.2 -50.6,550.3 93.6,781.4 112.6,180.6 271.3,278 475.9,326.2"
       style="fill:#151b29;fill-opacity:1;fill-rule:nonzero;stroke:none"
       id="path74" />
    <path
       d="m 14430.4,16622.4 c 75.9,1.2 140,-12.5 205.6,-52.4 88,-53.6 155.7,-146.2 179.1,-246.7 20,-86 11.6,-185.8 -40.4,-259.6 -48.4,-68.9 -105.4,-97.5 -186.1,-113.1 -52.1,-2.9 -107.6,-2.6 -156,19.4 -106.4,48.4 -186,150.9 -222.4,260.2 -26.8,80.6 -30.1,167.6 10.8,244 46.3,86.5 119.8,119.9 209.4,148.2"
       style="fill:#ffffff;fill-opacity:1;fill-rule:nonzero;stroke:none"
       id="path76" />
    <g
       id="g78">
      <g
         id="g80"
         clip-path="url(#clipPath84)">
        <path
           d="m 15818.6,14596.2 18.6,4.5 c 32.8,41.1 46,131.9 51.2,184 0.4,3.3 0.6,6.7 0.9,10.1 21.3,-75.6 17.4,-145 24,-222.3 8.5,51.6 8,105.5 10.2,157.8 68.8,-371.8 -99.2,-1130.9 -239.2,-1485.3 -40.6,-100.5 -86.8,-198.4 -138.4,-293.7 -51.6,-95.4 -108.5,-187.5 -170.5,-276.4 -439.2,-633.6 -1078.6,-1056.8 -1839.4,-1189.7 -707.5,-123.6 -1409.4,18 -1998.7,434.7 -484.3,342.4 -811.8,872.7 -988.3,1431.4 1352.4,-256.6 2887.1,-135.1 4155.8,408.8 241.6,103.6 497.5,226.4 714.3,374.8 69.3,47.4 153.4,104.2 201.4,174.4 81.9,91.2 137.7,180.2 198.1,286.9"
           style="fill:url(#linearGradient90);fill-opacity:1;fill-rule:nonzero;stroke:none"
           id="path92" />
      </g>
    </g>
    <path
       d="m 13289.2,12265.2 c 249.4,285.3 569.6,487.7 956.2,512.8 246.2,16 552.1,-39.6 741.4,-208.9 12.1,-10.8 23.1,-22.1 34.2,-33.9 -226,-292.1 -830,-770 -1201.9,-817.7 -22,-2.8 -44,-3.9 -66.1,-4.7 -1.4,-0.6 -2.8,-1.3 -4.2,-1.7 -530.2,-174 -1190.5,-125 -1690.2,120.5 -45.1,22.6 -86.5,51.5 -128.8,79 72.2,137 159.8,266.4 285,360.1 335,250.7 709.5,232.5 1101.1,174.9 l -94.2,-157.1 9.1,-29.1 -13.6,-16.3 c -18.5,-22.8 -31.9,-47.6 -45.6,-73.5 39.4,28.3 62.4,54.1 83,99 27.7,0.5 16.5,3.2 34.6,-3.4"
       style="fill:#f03c49;fill-opacity:1;fill-rule:nonzero;stroke:none"
       id="path94" />
    <path
       d="m 13289.2,12265.2 c 249.4,285.3 569.6,487.7 956.2,512.8 246.2,16 552.1,-39.6 741.4,-208.9 12.1,-10.8 23.1,-22.1 34.2,-33.9 -226,-292.1 -830,-770 -1201.9,-817.7 -22,-2.8 -44,-3.9 -66.1,-4.7 148.4,62.3 293,125.5 424.6,220.1 134,96.3 292.8,240.8 316.6,412.5 7.8,57 -1.7,112.6 -39.3,157.4 -48.7,58 -130.6,77.8 -203,82.2 -386.5,23.9 -756.5,-225.5 -1034.7,-464.7 11.8,54.4 43.1,98.1 72,144.9"
       style="fill:#ab1d24;fill-opacity:1;fill-rule:nonzero;stroke:none"
       id="path96" />
    <path
       d="m 11929.8,11910.6 c 72.2,137 159.8,266.4 285,360.1 335,250.7 709.5,232.5 1101.1,174.9 l -94.2,-157.1 c -36.9,-50.5 -72,-105.3 -114.6,-151 0,48.2 4.1,87.7 -34,123.7 -58.3,54.9 -140,58.7 -215.5,53.4 -256.9,-17.8 -530.3,-129.4 -701.6,-326.8 -40.9,-47.2 -72.6,-98.8 -97.4,-156.2 -45.1,22.6 -86.5,51.5 -128.8,79"
       style="fill:#ab1d24;fill-opacity:1;fill-rule:nonzero;stroke:none"
       id="path98" />
    <path
       d="m 13221.7,12288.5 9.1,-29.1 -13.6,-16.3 c -18.5,-22.8 -31.9,-47.6 -45.6,-73.5 39.4,28.3 62.4,54.1 83,99 27.7,0.5 16.5,3.2 34.6,-3.4 -28.9,-46.8 -60.2,-90.5 -72,-144.9 l -173,-244 c 13.5,89.9 33.7,175.1 62.9,261.2 42.6,45.7 77.7,100.5 114.6,151"
       style="fill:#110f0d;fill-opacity:1;fill-rule:nonzero;stroke:none"
       id="path100" />
    <g
       id="g102">
      <g
         id="g104"
         clip-path="url(#clipPath108)">
        <path
           d="m 15519.2,14008.6 c -204.5,-226 -651.8,-661.8 -914.8,-798.4 -684.1,-504.8 -1893.6,-633.3 -2719.6,-508.6 -318.2,48 -533.8,139.6 -746.5,384 558.1,-26.7 1106,-43.9 1663.3,8.6 232.7,21.9 460.8,61.6 691.7,95.6 533.6,129.7 1076.9,261.4 1562,527.3 160.4,87.9 307.4,197.1 463.9,291.5"
           style="fill:url(#linearGradient114);fill-opacity:1;fill-rule:nonzero;stroke:none"
           id="path116" />
      </g>
    </g>
    <path
       d="m 15193.2,20185.9 c 359.9,-39.3 717.7,-112.1 1072.1,-184.9 12.7,-208.8 45.3,-418 70.6,-625.6 l 104.7,-881.6 c 86.9,-687.9 163,-1377 228.4,-2067.2 37.8,-370.8 61.8,-742.4 97.4,-1113.2 39.8,-413.6 89.4,-825.3 123.8,-1239.8 l 66.1,-803.2 c 10.5,-144.6 12.5,-293.1 29.9,-436.9 3.1,-26.2 8.4,-47.9 22.1,-70.6 -203.9,-227.4 -492.6,-406 -747.9,-570.5 -27.3,273 -67.2,545 -95.4,818 -30.1,289.9 -150.9,1880.2 -209.3,1988.7 28.4,82.8 87.1,170.5 124.3,252.6 101.7,224.7 151.2,486.6 156.4,732.6 13.9,659 -248.9,1093.9 -687.6,1550.4 -11.3,229.3 -44.7,462.5 -65.9,691.5 -430.8,268.6 -1014.1,289.2 -1493.9,171.7 -162.7,-39.8 -333.5,-122.5 -504.2,-106 -71.5,-28.8 -127.6,-71.1 -184.6,-121.5 21.3,64.3 45,122.7 80.2,180.7 262.8,434.4 908.1,949.8 1405.6,1066.9 205.1,48.3 338.9,-45.7 504.9,-150.1 5.4,105.5 -15,220.4 -25.8,325.3 -20.3,197.6 -39.1,396.7 -71.9,592.7"
       style="fill:#3d63b7;fill-opacity:1;fill-rule:nonzero;stroke:none"
       id="path118" />
    <path
       d="m 13300.2,18170.4 c 21.3,64.3 45,122.7 80.2,180.7 262.8,434.4 908.1,949.8 1405.6,1066.9 205.1,48.3 338.9,-45.7 504.9,-150.1 132.4,-102.5 266.7,-212.5 375.8,-340.1 297.9,-348.3 588.6,-965.3 694.3,-1414.6 -114.3,147.3 -209.7,306.7 -334,446.6 -293.6,330.6 -778.8,572.6 -1215.1,630 -395.2,52 -993.6,-84.6 -1327.1,-297.9 -71.5,-28.8 -127.6,-71.1 -184.6,-121.5"
       style="fill:#110f0d;fill-opacity:1;fill-rule:nonzero;stroke:none"
       id="path120" />
    <path
       d="m 14921.8,19371.7 c 310,-118.5 652.5,-507 812.4,-788.4 91.2,-117.7 159.2,-261.2 229.2,-392.6 -115.9,83.2 -231.5,173 -354.9,244.7 -427,248 -892.7,309.3 -1375.2,229.8 -178.8,-29.5 -346.8,-79.2 -515.9,-143.6 -10.7,-3.9 -21,-4.4 -32.3,-5.6 5,15.6 5.3,19.1 15.3,35.1 34.6,55.2 97.9,107.8 144.5,152.6 275.7,265.4 697.7,576.2 1076.9,668"
       style="fill:#28429d;fill-opacity:1;fill-rule:nonzero;stroke:none"
       id="path122" />
    <path
       d="m 13717.4,18521.6 c 35.6,56.1 78.4,86.9 136.1,118.7 349.6,192.6 1099.5,300.9 1473.1,155.2 115.7,-45.1 305,-190 394.3,-210.6 4.4,-0.9 8.8,-1.1 13.3,-1.6 91.2,-117.7 159.2,-261.2 229.2,-392.6 -115.9,83.2 -231.5,173 -354.9,244.7 -427,248 -892.7,309.3 -1375.2,229.8 -178.8,-29.5 -346.8,-79.2 -515.9,-143.6"
       style="fill:#151b29;fill-opacity:1;fill-rule:nonzero;stroke:none"
       id="path124" />
    <path
       d="m 10201.7,14279 c -242.59,145.3 -437.99,411.6 -566.75,658.3 -13.81,26.6 -26.96,53.6 -39.43,80.9 -12.46,27.2 -24.26,54.8 -35.38,82.6 -11.11,27.9 -21.52,56 -31.23,84.4 -9.73,28.3 -18.75,56.9 -27.05,85.7 -8.3,28.9 -15.89,57.9 -22.76,87.1 -6.88,29.2 -13.02,58.5 -18.44,88 -5.41,29.5 -10.09,59.1 -14.05,88.8 -3.95,29.7 -7.17,59.6 -9.64,89.4 -2.48,29.9 -4.21,59.8 -5.2,89.8 -1,30 -1.26,60 -0.78,90 0.49,29.9 1.72,59.9 3.69,89.8 1.97,29.9 4.68,59.8 8.12,89.6 3.45,29.8 7.63,59.4 12.55,89 4.92,29.6 10.56,59.1 16.93,88.4 6.37,29.3 13.46,58.4 21.29,87.3 7.81,29 16.33,57.7 25.57,86.3 122.11,376.5 366.24,703.1 722.96,884 318.9,161.7 676.7,179.4 1014.8,67.2 439.9,-145.9 751,-463.7 957.2,-871.6 40.4,-103.8 91.8,-219.6 108.5,-329.5 14,-92.7 1.6,-212.2 30.5,-298.9 -0.9,-494.5 -159.1,-1009.3 -517.7,-1365.9 -22.8,-22.6 -44,-32.9 -76.5,-32.5 l -46,19.9 c -503,-188.1 -707,-266.7 -1266.9,-182.3 -83.1,12.5 -162.8,42.6 -244.3,54.2"
       style="fill:#ffffff;fill-opacity:1;fill-rule:nonzero;stroke:none"
       id="path126" />
    <path
       d="m 11037.7,16473.3 c 160.5,11.3 302.7,-16.8 444.6,-91.9 226.3,-119.8 389.5,-335 461.9,-579 77.5,-260.9 65.3,-573.5 -67,-814.9 -105.6,-192.5 -254.2,-291.3 -460.5,-351 -161.5,-16.5 -291.7,0.2 -434.8,81.8 -238.4,135.9 -420.3,397.3 -490.3,659.6 -67.8,253.5 -53.8,533.8 81.8,763.4 106.8,180.7 263.5,280.5 464.3,332"
       style="fill:#151b29;fill-opacity:1;fill-rule:nonzero;stroke:none"
       id="path128" />
    <path
       d="m 11282.6,16278.2 c 53.7,4.6 106.5,8.2 159.1,-7 99.7,-28.9 187.9,-104.6 233.7,-197.4 33.4,-67.6 43.6,-148 17.8,-219.9 -31.2,-86.9 -95.6,-132.7 -175.7,-171.2 -55.3,-9.9 -108.6,-18.8 -164.2,-5.6 -83.5,19.7 -156.5,84 -198.6,157 -46,80 -64.7,180.5 -35.9,269.6 27.9,86.5 85.8,133.9 163.8,174.5"
       style="fill:#ffffff;fill-opacity:1;fill-rule:nonzero;stroke:none"
       id="path130" />
    <path
       d="m 9688.23,17015.9 c 284.83,300.1 605.27,483.3 1028.87,493.4 402.8,9.6 782.1,-153.9 1070.8,-431.8 134.4,-129.3 418.8,-475.2 426.2,-663.5 -206.2,407.9 -517.3,725.7 -957.2,871.6 -338.1,112.2 -695.9,94.5 -1014.8,-67.2 -356.72,-180.9 -600.85,-507.5 -722.96,-884 -9.24,-28.6 -17.76,-57.3 -25.57,-86.3 -7.83,-28.9 -14.92,-58 -21.29,-87.3 -6.37,-29.3 -12.01,-58.8 -16.93,-88.4 -4.92,-29.6 -9.1,-59.2 -12.55,-89 -3.44,-29.8 -6.15,-59.7 -8.12,-89.6 -1.97,-29.9 -3.2,-59.9 -3.69,-89.9 -0.48,-29.9 -0.22,-59.9 0.76,-89.9 1,-30 2.74,-59.9 5.22,-89.8 2.47,-29.8 5.69,-59.7 9.64,-89.4 3.96,-29.7 8.64,-59.3 14.05,-88.8 5.42,-29.5 11.56,-58.8 18.44,-88 6.87,-29.2 14.46,-58.2 22.76,-87.1 8.3,-28.8 17.32,-57.4 27.05,-85.7 9.71,-28.4 20.12,-56.5 31.23,-84.4 11.12,-27.8 22.92,-55.4 35.38,-82.6 12.47,-27.3 25.62,-54.3 39.43,-80.9 128.76,-246.7 324.16,-513 566.75,-658.3 81.5,-11.6 161.2,-41.7 244.3,-54.2 559.9,-84.4 763.9,-5.8 1266.9,182.3 l 46,-19.9 c 32.5,-0.4 53.7,9.9 76.5,32.5 358.6,356.6 516.8,871.4 517.7,1365.9 97,-403.1 -70.6,-916.3 -281.6,-1258.7 -56.9,-92.4 -120.8,-179.2 -186.7,-265.4 95.7,-143 242.6,-324.3 418.4,-363.5 156.9,-35 363.8,-7.4 522.1,13.6 -189.3,-81.3 -398.5,-97.4 -597.5,-142.9 -195.7,83.5 -339.2,209.1 -462.1,383.1 -344.8,-235 -693.3,-342 -1111.2,-260.7 -352.8,68.7 -639.4,269.3 -882.92,527 -264.45,344 -430.32,651.6 -485.57,1092.2 -67.4,537.5 67.63,1078.9 402.22,1505.6"
       style="fill:#110f0d;fill-opacity:1;fill-rule:nonzero;stroke:none"
       id="path132" />
    <path
       d="m 10201.7,14279 c 81.5,-11.6 161.2,-41.7 244.3,-54.2 559.9,-84.4 763.9,-5.8 1266.9,182.3 3.3,-54.4 12.3,-104.9 24.1,-158.1 -284.7,-202.8 -601.2,-281.3 -949,-224.7 -26.6,4.5 -53,9.7 -79.2,15.8 -26.2,6 -52.2,12.9 -78,20.5 -25.8,7.7 -51.3,16.1 -76.6,25.3 -25.3,9.2 -50.3,19.1 -75,29.8 -24.7,10.8 -49,22.2 -73,34.4 -24,12.2 -47.6,25.2 -70.7,38.8 -23.2,13.6 -46,28 -68.3,43 -22.3,15.1 -44.2,30.8 -65.5,47.1"
       style="fill:#cec9c2;fill-opacity:1;fill-rule:nonzero;stroke:none"
       id="path134" />
    <path
       d="m 17029.6,10926.2 c 198.4,164.5 376.2,346.3 518.9,562.5 48.1,-582.9 121.1,-1165.3 181.9,-1747.2 49.5,-474.7 83.9,-957 154.1,-1428.8 -104.6,-180.4 -309.7,-302.4 -476.2,-421.6 -122.5,-89.5 -269.1,-156.6 -406.2,-221.1 -551.8,-259.6 -1122.9,-426.3 -1721.6,-537.9 -1674.2,-284.1 -3805.7,-443.8 -5455.08,-3.2 -204.57,61.8 -389.19,124.2 -575.85,229.6 -69.31,377.9 -104.2,819.7 -153.37,1207.9 l -130.92,1093.7 c -35,291.9 -75.48,584.7 -96.92,877.8 177,-151.6 373.35,-278 576.7,-391 298.05,-139.2 587.54,-249 901.44,-345.7 414.4,-105.3 847.9,-178.1 1275.5,-196.4 -29.1,-223 -79.4,-442.7 -100,-666.7 l 395,-2.6 c 226.1,19.3 459.7,16.4 686.9,22.6 -95.4,-413.5 -234.5,-815.2 -388.4,-1210.3 -54.5,-140 -254.3,-498.8 -266.8,-613.1 l 13.9,-10.8 c 134.3,40.4 293.3,211.8 400.2,303.7 131.6,115.1 259.8,233.8 384.6,356.2 124.7,122.4 245.9,248.3 363.4,377.7 117.5,129.3 231.3,262 341.2,397.9 109.9,135.9 215.9,274.8 317.8,416.8 98.9,135.1 194.7,272.4 287.5,411.8 70.5,105.9 139,232.4 226.8,324.1 2.6,2.7 5.3,5.3 7.9,7.9 673.5,136 1353.4,340.5 1955.8,676.2 278,155.5 541.6,319 781.8,530"
       style="fill:#28429d;fill-opacity:1;fill-rule:nonzero;stroke:none"
       id="path136" />
    <path
       d="m 17029.6,10926.2 c 198.4,164.5 376.2,346.3 518.9,562.5 48.1,-582.9 121.1,-1165.3 181.9,-1747.2 49.5,-474.7 83.9,-957 154.1,-1428.8 -104.6,-180.4 -309.7,-302.4 -476.2,-421.6 -122.5,-89.5 -269.1,-156.6 -406.2,-221.1 -551.8,-259.6 -1122.9,-426.3 -1721.6,-537.9 86.9,150.7 383.5,268.9 519.6,428.5 562.5,659.4 519.8,2011.5 447.7,2835.6 278,155.5 541.6,319 781.8,530"
       style="fill:#283476;fill-opacity:1;fill-rule:nonzero;stroke:none"
       id="path138" />
    <path
       d="m 17029.6,10926.2 c 198.4,164.5 376.2,346.3 518.9,562.5 48.1,-582.9 121.1,-1165.3 181.9,-1747.2 49.5,-474.7 83.9,-957 154.1,-1428.8 -104.6,-180.4 -309.7,-302.4 -476.2,-421.6 -67.2,699.7 -149,1397.8 -245.6,2094.1 -43.1,314 -76.5,628.9 -133.1,941"
       style="fill:#3d63b7;fill-opacity:1;fill-rule:nonzero;stroke:none"
       id="path140" />
    <path
       d="m 10346.5,9801.2 c 414.4,-105.3 847.9,-178.1 1275.5,-196.4 -29.1,-223 -79.4,-442.7 -100,-666.7 l 395,-2.6 c 98,-8.5 198.4,-3.4 296.7,-2.5 -55.8,-224.7 -88.6,-457.6 -130.3,-685.5 -74,-404 -146.5,-804.4 -209.1,-1210.6 -292.5,17.4 -568.4,63.2 -853.4,128.4 -160.2,580 -301.2,1170.1 -442.6,1755.1 -56.4,233.1 -133.7,675.7 -231.8,880.8"
       style="fill:#3d63b7;fill-opacity:1;fill-rule:nonzero;stroke:none"
       id="path142" />
    <path
       d="m 8868.36,10537.9 c 177,-151.6 373.35,-278 576.7,-391 81.98,-316.9 78.78,-672.3 120.44,-998 85,-664.3 205.44,-1355.5 259.92,-2020 -204.57,61.8 -389.19,124.2 -575.85,229.6 -69.31,377.9 -104.2,819.7 -153.37,1207.9 l -130.92,1093.7 c -35,291.9 -75.48,584.7 -96.92,877.8"
       style="fill:#88c6ee;fill-opacity:1;fill-rule:nonzero;stroke:none"
       id="path144" />
    <g
       id="g146">
      <g
         id="g148"
         clip-path="url(#clipPath152)">
        <path
           d="m 12769.3,21679.9 c 873.1,146.3 2118.9,6.4 2976.1,-221.9 214.8,-57.2 452.6,-116.2 635.8,-246.3 155.8,-110.8 254.5,-287.1 283.9,-474.4 16.9,-107.3 14.5,-226.1 -3.5,-333 -839.4,230.3 -1508.7,326.1 -2383.8,351.1 -1581.4,45.2 -3731.5,-278.8 -5229.17,-781.5 -290.83,-97.5 -588.95,-200.7 -857.1,-351.8 -62.97,-35.2 -123.57,-74.1 -181.81,-116.7 -58.24,-42.5 -113.7,-88.4 -166.39,-137.7 -48.65,106.1 -94.74,210.1 -117.41,325.2 -5.11,62.5 -3.42,115.6 4.21,177.9 25.57,128.6 85.79,244.2 168.11,345.5 455.25,560.4 1869.7,991.3 2571.56,1141.6 561.6,120.2 1138.4,190.9 1709.1,252.1 195.8,29 392.8,57.1 590.4,69.9"
           style="fill:url(#linearGradient158);fill-opacity:1;fill-rule:nonzero;stroke:none"
           id="path160" />
      </g>
    </g>
    <path
       d="m 12769.3,21679.9 c 873.1,146.3 2118.9,6.4 2976.1,-221.9 214.8,-57.2 452.6,-116.2 635.8,-246.3 155.8,-110.8 254.5,-287.1 283.9,-474.4 16.9,-107.3 14.5,-226.1 -3.5,-333 -839.4,230.3 -1508.7,326.1 -2383.8,351.1 -1581.4,45.2 -3731.5,-278.8 -5229.17,-781.5 -290.83,-97.5 -588.95,-200.7 -857.1,-351.8 -62.97,-35.2 -123.57,-74.1 -181.81,-116.7 -58.24,-42.5 -113.7,-88.4 -166.39,-137.7 -48.65,106.1 -94.74,210.1 -117.41,325.2 1109.84,775.8 4049.28,1201.8 5456.58,1294.1 610.9,40.1 1222.1,19.9 1832.6,44.7 67.4,2.8 177.5,2 225.1,53.5 -1,16.4 -0.2,18.7 -6,36.1 -19.3,57.3 -121.2,122.8 -172.7,156 -389.2,250.8 -1146.5,326.6 -1611.5,341.3 -208.7,6.6 -467.7,-11.4 -665.4,55.9 -5.2,1.7 -10.2,3.6 -15.3,5.4"
       style="fill:#81634f;fill-opacity:1;fill-rule:nonzero;stroke:none"
       id="path162" />
    <path
       d="m 7730.13,19870.8 c 25.57,128.6 85.79,244.2 168.11,345.5 455.25,560.4 1869.7,991.3 2571.56,1141.6 561.6,120.2 1138.4,190.9 1709.1,252.1 133.2,-27.3 274.9,-19.1 410.4,-24 385.1,-14 1007.7,-34.4 1299.4,-309.7 -490.2,-99.5 -1008.8,-68.8 -1507.3,-99.4 -1141.3,-70.1 -2292.6,-242 -3375.77,-619.6 -303.23,-105.7 -598.47,-236.7 -870.28,-408.7 -116.82,-73.9 -289.13,-231.1 -405.22,-277.8"
       style="fill:#cec9c2;fill-opacity:1;fill-rule:nonzero;stroke:none"
       id="path164" />
    <path
       d="m 14244.9,6805.1 c 132.2,34.1 284.4,40.1 420.4,59.1 247.9,33.8 494.3,76.5 739.2,127.8 736.8,152.3 1894.1,508.4 2439.6,1035 102.6,98.9 177.3,222.5 255,340.8 22.5,-62.4 37.9,-127.2 54.8,-191.3 26.9,-236.9 -13.5,-409.3 -161.5,-597 C 17257,6647.1 15202,6309 14069.1,6183.5 c -1212.5,-134.3 -2455.5,-144.9 -3654.7,100.3 -373.3,76.4 -799.48,177.8 -1101.81,419.7 -78.6,62.9 -168.28,151.5 -196.97,249.7 -44.92,137.2 -39.62,246.1 6.57,381.3 113.79,-95.1 224.31,-181.2 359.17,-244.4 422.35,-197.9 929.94,-263.9 1389.04,-312.8 1007.7,-107.3 2002.5,-96.1 3010.5,-5.9 120.6,10.8 243.2,29.9 364,33.7"
       style="fill:#985e37;fill-opacity:1;fill-rule:nonzero;stroke:none"
       id="path166" />
    <path
       d="m 9122.19,7334.5 c 113.79,-95.1 224.31,-181.2 359.17,-244.4 422.35,-197.9 929.94,-263.9 1389.04,-312.8 1007.7,-107.3 2002.5,-96.1 3010.5,-5.9 120.6,10.8 243.2,29.9 364,33.7 6.8,-2.1 13.5,-4.4 20.3,-6.3 101.5,-28.6 214.9,46.6 309.8,-20.9 14.1,-32.6 18.4,-40.2 5.7,-75.8 -13.4,-37.5 -61.8,-86.7 -99,-99.8 -7.2,-2.6 -14.9,-4 -22.4,-6.1 l -58.1,-16.9 -3.5,-15.5 c -381.9,-96.7 -796.4,-131.6 -1189.1,-148.7 -1098.9,-47.7 -2479.1,-15.6 -3535.43,288.2 -195.94,56.3 -404.68,109.7 -557.55,249.9 -44.92,137.2 -39.62,246.1 6.57,381.3"
       style="fill:#efc886;fill-opacity:1;fill-rule:nonzero;stroke:none"
       id="path168" />
    <path
       d="m 14244.9,6805.1 c 132.2,34.1 284.4,40.1 420.4,59.1 247.9,33.8 494.3,76.5 739.2,127.8 736.8,152.3 1894.1,508.4 2439.6,1035 102.6,98.9 177.3,222.5 255,340.8 22.5,-62.4 37.9,-127.2 54.8,-191.3 -236,-228 -502.7,-458.9 -791.2,-616.7 -474.7,-259.7 -1018.9,-420.2 -1532.2,-584.6 -352.7,-112.9 -702.7,-231.4 -1061.1,-325.3 -113.9,-29.9 -254.8,-79.2 -371.7,-86.1 l 3.5,15.5 58.1,16.9 c 7.5,2.1 15.2,3.5 22.4,6.1 37.2,13.1 85.6,62.3 99,99.8 12.7,35.6 8.4,43.2 -5.7,75.8 -94.9,67.5 -208.3,-7.7 -309.8,20.9 -6.8,1.9 -13.5,4.2 -20.3,6.3"
       style="fill:#f8a80e;fill-opacity:1;fill-rule:nonzero;stroke:none"
       id="path170" />
    <path
       d="m 10947.2,23303.1 c 6.6,3.3 13.2,6.7 19.8,9.9 363.7,175.5 1304.7,220.6 1711.3,182.5 124.4,-11.7 237.1,-36.2 355.2,-76.7 275.9,-119.4 498.7,-298.9 613.3,-584 105.1,-261.4 127.2,-637.3 137,-919.6 -342.9,2.4 -681.3,-3.8 -1023.6,-29.5 -200,-15 -412.9,-53.6 -612.4,-52.9 -211.1,-23.7 -424.9,-54.9 -636.8,-68.2 -369.4,-45.2 -737,-111.7 -1106.7,-151.6 -27,372.3 -148.1,760.8 -15.3,1123 105.1,286.4 285.9,442.7 558.2,567.1"
       style="fill:#110f0d;fill-opacity:1;fill-rule:nonzero;stroke:none"
       id="path172" />
    <path
       d="m 10404.3,21613 c -27,372.3 -148.1,760.8 -15.3,1123 105.1,286.4 285.9,442.7 558.2,567.1 52.3,-5.4 102.6,-9.5 155.2,-7.2 133.8,0.7 267.6,0.1 401.4,-1.7 44.6,-28.4 91.7,-55.4 134.2,-86.5 l 6,-180.5 c -275.1,-35.3 -600.6,-71.1 -852.7,-187.6 13.3,-295.1 57.7,-593.6 111.6,-883.8 191.6,47.7 383.8,76.7 579.4,101.7 l 33,-5.7 c 31.9,-58.4 -1.5,-218.5 -4.3,-287.2 -369.4,-45.2 -737,-111.7 -1106.7,-151.6"
       style="fill:#cec9c2;fill-opacity:1;fill-rule:nonzero;stroke:none"
       id="path174" />
    <g
       id="g176">
      <g
         id="g178"
         clip-path="url(#clipPath182)">
        <path
           d="m 13033.5,23418.8 c 275.9,-119.4 498.7,-298.9 613.3,-584 105.1,-261.4 127.2,-637.3 137,-919.6 -342.9,2.4 -681.3,-3.8 -1023.6,-29.5 -200,-15 -412.9,-53.6 -612.4,-52.9 l 4.6,21 26.2,-0.9 7.1,7.8 -72.6,68.8 c 26.5,64.9 74.6,126.9 96.7,189.4 l -54.1,9.9 c 308.5,36.7 620.3,20 926.4,80.6 0.4,212.3 -57.2,424.8 -51.2,635.9 51.7,81.6 9.5,269.7 -2,367 -2.7,68.1 2.5,138.2 4.6,206.5"
           style="fill:url(#linearGradient188);fill-opacity:1;fill-rule:nonzero;stroke:none"
           id="path190" />
      </g>
    </g>
    <path
       d="m 10947.2,23303.1 c 6.6,3.3 13.2,6.7 19.8,9.9 363.7,175.5 1304.7,220.6 1711.3,182.5 124.4,-11.7 237.1,-36.2 355.2,-76.7 -2.1,-68.3 -7.3,-138.4 -4.6,-206.5 11.5,-97.3 53.7,-285.4 2,-367 -11.2,74.6 -18.3,150.2 -27.3,225.1 -448.1,33.7 -913.1,2 -1359.6,-43.2 l -6,180.5 c -42.5,31.1 -89.6,58.1 -134.2,86.5 -133.8,1.8 -267.6,2.4 -401.4,1.7 -52.6,-2.3 -102.9,1.8 -155.2,7.2"
       style="fill:#a5b2c3;fill-opacity:1;fill-rule:nonzero;stroke:none"
       id="path192" />
    <path
       d="m 10947.2,23303.1 c 6.6,3.3 13.2,6.7 19.8,9.9 363.7,175.5 1304.7,220.6 1711.3,182.5 124.4,-11.7 237.1,-36.2 355.2,-76.7 -2.1,-68.3 -7.3,-138.4 -4.6,-206.5 -6.7,31.2 -9.3,61.6 -32.6,85.3 -320.8,26.8 -651.5,57.6 -973.2,52.3 -201.8,-3.3 -402.8,-31.3 -604.6,-37.5 -68.5,-2.2 -265.8,18.1 -316.1,-16.5 -52.6,-2.3 -102.9,1.8 -155.2,7.2"
       style="fill:#969291;fill-opacity:1;fill-rule:nonzero;stroke:none"
       id="path194" />
    <path
       d="m 11482.3,22057.5 c 138.1,38.6 515.9,55.8 673.4,71.3 l 54.1,-9.9 c -22.1,-62.5 -70.2,-124.5 -96.7,-189.4 l 72.6,-68.8 -7.1,-7.8 -26.2,0.9 -4.6,-21 c -211.1,-23.7 -424.9,-54.9 -636.8,-68.2 2.8,68.7 36.2,228.8 4.3,287.2 l -33,5.7"
       style="fill:#969291;fill-opacity:1;fill-rule:nonzero;stroke:none"
       id="path196" />
    <path
       d="m 11425.6,22825.4 c 238.6,34.7 478.1,60.1 718.6,76.2 240.5,16.1 481.3,22.9 722.3,20.3 17,-199 38.7,-398.9 44.8,-598.5 -471.3,-1.1 -936.8,-38.4 -1404.2,-97.3 -156.1,-13 -311,-47.4 -465.9,-70.8 -34.5,191.9 -60.1,385.2 -96.1,577.3 159.2,36 319.4,66.9 480.5,92.8"
       style="fill:#f8a80e;fill-opacity:1;fill-rule:nonzero;stroke:none"
       id="path198" />
    <path
       d="m 10945.1,22732.6 c 159.2,36 319.4,66.9 480.5,92.8 41.2,-184.4 103.5,-411.3 81.5,-599.3 -156.1,-13 -311,-47.4 -465.9,-70.8 -34.5,191.9 -60.1,385.2 -96.1,577.3"
       style="fill:#efc886;fill-opacity:1;fill-rule:nonzero;stroke:none"
       id="path200" />
    <path
       d="m 17383.5,13014.3 c 30.5,-217.6 43,-438 62.6,-656.8 21.3,-219.2 44.1,-438.2 68.7,-657.1 -196.7,-255.3 -413.1,-498.1 -663.9,-702 -613.6,-498.9 -1707.6,-959.6 -2481.9,-1084.5 1.2,4.5 2.3,9 3.5,13.5 21.6,77.7 86.6,164.1 90.2,240.7 -47.6,31.4 -102.5,20.1 -156.7,9.5 -191.9,-37.3 -372.3,-115.7 -568,-140.2 64.2,151.5 126.2,302.5 180.9,457.7 75.5,237.9 151.5,479 187.2,726.5 967.9,235.5 1798.2,525 2611.9,1109.9 248.3,212.5 469.8,418.8 665.5,682.8"
       style="fill:#f8a80e;fill-opacity:1;fill-rule:nonzero;stroke:none"
       id="path202" />
    <path
       d="m 14106.1,11221.6 c 967.9,235.5 1798.2,525 2611.9,1109.9 22,-207.8 -136.6,-442.1 -261.4,-596.4 -509.6,-629.9 -1245.6,-961.1 -2016.4,-1146.7 -146.5,-35.2 -304.7,-81.5 -453.9,-98.5 -24.6,-2.8 -43.7,-1.7 -67.4,5.2 75.5,237.9 151.5,479 187.2,726.5"
       style="fill:#f9d628;fill-opacity:1;fill-rule:nonzero;stroke:none"
       id="path204" />
    <path
       d="m 6685.49,9659.6 c 101.19,383.4 338.8,664.8 679.05,862.7 234.18,136.2 516.06,230.1 786.76,158.4 75.11,-19.9 147.19,-54.3 215.18,-91.5 -319.7,-36.1 -591.02,-118.9 -799.19,-379 l -14.99,-19.1 c 330.46,190.3 700.29,265.2 1074.67,168 l 19.15,-5.2 c 82.71,-605.6 150.8,-1215.2 245.16,-1819 8.61,-55.4 23.38,-111.5 8.17,-166.5 -21.73,-25.5 -26.73,-34.5 -62.02,-39.1 -110.17,-14.4 -294.37,149 -389.96,155 56.77,-73.7 122.19,-135.2 189.86,-198.7 89.38,-73.5 193.16,-106.6 302.35,-138.4 24.02,-108.3 46.69,-215.4 62.12,-325.3 -26.91,-6.5 -53.94,-12.3 -81.12,-17.6 -402.31,-76.5 -722.45,137.3 -1040.88,351.1 174.19,-199.8 388.71,-342.3 619.01,-468.1 -132.89,-55.1 -280.08,-68 -422.35,-53.1 -177.21,18.6 -296.94,70.7 -409.06,210.1 -127.28,158.3 -237.92,331.1 -349.57,500.6 -301.54,457.6 -375.67,611.9 -314.41,1178.1 22.87,96.4 47.68,192.4 74.44,287.8 -77.77,-125.6 -145.35,-245.5 -172.93,-392.4 -99.52,64.7 -189.86,118.3 -219.44,241.2"
       style="fill:#ffffff;fill-opacity:1;fill-rule:nonzero;stroke:none"
       id="path206" />
    <path
       d="m 8498.81,7687.3 c -132.89,-55.1 -280.08,-68 -422.35,-53.1 -177.21,18.6 -296.94,70.7 -409.06,210.1 -127.28,158.3 -237.92,331.1 -349.57,500.6 -301.54,457.6 -375.67,611.9 -314.41,1178.1 4.33,-5.3 8.78,-10.5 12.97,-15.9 54.38,-70.3 74.39,-204.6 111.5,-288.2 96.17,-216.7 353.05,-627.4 550.71,-767.5 103.07,-73 232.02,-109.8 355.38,-129.8 189.82,-30.7 411.77,-58.6 603.35,-36 89.38,-73.5 193.16,-106.6 302.35,-138.4 24.02,-108.3 46.69,-215.4 62.12,-325.3 -26.91,-6.5 -53.94,-12.3 -81.12,-17.6 -402.31,-76.5 -722.45,137.3 -1040.88,351.1 174.19,-199.8 388.71,-342.3 619.01,-468.1"
       style="fill:#cec9c2;fill-opacity:1;fill-rule:nonzero;stroke:none"
       id="path208" />
    <path
       d="m 8447.47,8484.3 c -17.05,16.1 -28.82,40.1 -41.34,60 l 4.38,17.6 c 174.7,-34.6 300.85,-66.4 480.77,-27 8.61,-55.4 23.38,-111.5 8.17,-166.5 -21.73,-25.5 -26.73,-34.5 -62.02,-39.1 -110.17,-14.4 -294.37,149 -389.96,155"
       style="fill:#a5b2c3;fill-opacity:1;fill-rule:nonzero;stroke:none"
       id="path210" />
    <path
       d="m 12877.9,11067.6 c 353.2,28.8 704.8,70.3 1054.9,124.5 -60.6,-270.4 -118.6,-537.2 -217.3,-797.2 -75.3,-198.3 -186.6,-394.9 -241.7,-598.1 258.7,55.1 528.2,122.4 773.6,221.3 -334.9,-612.6 -747.9,-1163.6 -1206.4,-1689.2 -157.2,-180.2 -318.4,-368.2 -498.3,-526.6 -110.9,-121.9 -224.9,-240.7 -342.1,-356.5 282.5,532.8 461.6,1081.1 556.7,1675.7 -365.5,-16.3 -727,-43.4 -1093.5,-49.1 46.1,265.9 115.8,528.4 169.6,793 77.9,392.1 145.8,786 203.5,1181.7 281.4,0.1 560.2,3.2 841,20.5"
       style="fill:#f8a80e;fill-opacity:1;fill-rule:nonzero;stroke:none"
       id="path212" />
    <path
       d="m 12036.9,11047.1 c 281.4,0.1 560.2,3.2 841,20.5 -77,-546.7 -264.8,-1196.7 -477.9,-1708.4 161.1,21.7 323.2,27.3 484.6,45 138.6,15.1 277.4,41.1 416.5,49.8 -114.7,-370.5 -289.7,-734.5 -469.6,-1077.8 -88.8,-169.3 -237.5,-394.9 -288.8,-573.9 -110.9,-121.9 -224.9,-240.7 -342.1,-356.5 282.5,532.8 461.6,1081.1 556.7,1675.7 -365.5,-16.3 -727,-43.4 -1093.5,-49.1 46.1,265.9 115.8,528.4 169.6,793 77.9,392.1 145.8,786 203.5,1181.7"
       style="fill:#f7ee8e;fill-opacity:1;fill-rule:nonzero;stroke:none"
       id="path214" />
    <path
       d="m 18448.4,6364.6 c 402.2,46.5 843.5,-25.2 1172.1,-279.5 19.1,-14.6 37.3,-30.2 54.7,-46.7 58.6,-63.6 115.6,-127 168.5,-195.5 -238.4,-111.9 -474,-229.5 -706.8,-352.7 -107.7,-56.4 -233.2,-143.1 -347.3,-181.6 -137.2,-99 -289.7,-177.2 -430.5,-271.6 -237.7,-159.5 -467.4,-333.7 -699.2,-501.7 -91.9,-98.8 -234.9,-180.2 -340.7,-267.5 -181.8,-149.9 -347.4,-324.7 -506.3,-498.3 -74.6,219.3 -149.1,439.8 -199.4,666.1 -47.2,212.5 -42.3,461.9 -136.5,659.2 -89.9,188.2 -251.2,358.7 -389.4,513.7 -138.7,155.5 -312.3,268.9 -449.9,420.8 -3.5,3.9 -6.8,7.8 -10.3,11.6 81.8,34.4 821.7,260.3 877.8,257.4 37.8,-1.9 58.7,-34.5 83.9,-59.2 171.2,-180.5 335.1,-362.5 490.5,-556.9 -68.3,-393.8 -70.2,-766.3 110,-1133.8 -41.8,424 71.5,916.1 319.1,1266.4 1.2,1.7 2.6,3.1 3.9,4.7 23.2,33.8 46.5,68.2 73,99.7 206.9,246.6 542.6,420.8 862.8,445.4"
       style="fill:#5791d4;fill-opacity:1;fill-rule:nonzero;stroke:none"
       id="path216" />
    <path
       d="m 18448.4,6364.6 c 402.2,46.5 843.5,-25.2 1172.1,-279.5 19.1,-14.6 37.3,-30.2 54.7,-46.7 -357.5,-236.5 -763.4,-468.8 -1169,-610.9 -221.5,-77.6 -451.2,-123.1 -667.9,-215.4 155.5,377.9 366.7,590.3 727.6,775.1 -245,-8.5 -505.4,-36.5 -739,-114.6 -84.5,-26.4 -227.3,-87.9 -314.3,-53.1 23.2,33.8 46.5,68.2 73,99.7 206.9,246.6 542.6,420.8 862.8,445.4"
       style="fill:#ffffff;fill-opacity:1;fill-rule:nonzero;stroke:none"
       id="path218" />
    <path
       d="m 17512.6,5819.5 c 23.2,33.8 46.5,68.2 73,99.7 206.9,246.6 542.6,420.8 862.8,445.4 -6.4,-4.3 -12.8,-8.8 -19.3,-12.9 -53.7,-33.9 -132.4,-43.1 -193.1,-61.9 -127,-39.3 -416.2,-149 -454,-291.2 -9.9,-37 -1.7,-84.2 20.8,-114.6 l 24.1,-11.4 c -84.5,-26.4 -227.3,-87.9 -314.3,-53.1"
       style="fill:#b8ddf5;fill-opacity:1;fill-rule:nonzero;stroke:none"
       id="path220" />
    <path
       d="m 15627.4,6040.9 c 81.8,34.4 821.7,260.3 877.8,257.4 37.8,-1.9 58.7,-34.5 83.9,-59.2 -215.9,-113 -434.3,-179.6 -660.3,-265.5 201.5,-170.2 624.6,-568.8 711.2,-805.6 40.4,-110.5 43,-242.2 60.3,-358 36.6,-244.9 142.5,-520.4 269.9,-731.6 98.2,101.9 201.2,197.4 305.3,293.1 60.6,18.1 137.3,93 192.7,130.1 127.4,85.3 258.8,162.4 388,244.5 90,57.3 174.2,124.9 269.5,173.3 l 10.1,-5 c -90.2,-105.6 -360.2,-247.5 -480.7,-357.2 l 4.8,-21.9 c -91.9,-98.8 -234.9,-180.2 -340.7,-267.5 -181.8,-149.9 -347.4,-324.7 -506.3,-498.3 -74.6,219.3 -149.1,439.8 -199.4,666.1 -47.2,212.5 -42.3,461.9 -136.5,659.2 -89.9,188.2 -251.2,358.7 -389.4,513.7 -138.7,155.5 -312.3,268.9 -449.9,420.8 -3.5,3.9 -6.8,7.8 -10.3,11.6"
       style="fill:#28429d;fill-opacity:1;fill-rule:nonzero;stroke:none"
       id="path222" />
    <path
       d="m 17275.5,4371.5 c 32.2,47.6 80.1,85 126.6,118.1 152.9,108.8 320.5,201.6 478.7,302.9 156.2,100 767.1,540 908.8,516.1 -137.2,-99 -289.7,-177.2 -430.5,-271.6 -237.7,-159.5 -467.4,-333.7 -699.2,-501.7 l -4.8,21.9 c 120.5,109.7 390.5,251.6 480.7,357.2 l -10.1,5 c -95.3,-48.4 -179.5,-116 -269.5,-173.3 -129.2,-82.1 -260.6,-159.2 -388,-244.5 -55.4,-37.1 -132.1,-112 -192.7,-130.1"
       style="fill:#4b7cc7;fill-opacity:1;fill-rule:nonzero;stroke:none"
       id="path224" />
    <path
       d="m 8697.75,12100.8 c 198.2,-146.4 327.6,-277.8 554.47,-412.3 760.18,-450.7 1768.58,-597.2 2640.28,-636.5 -32.2,-220.2 -65.5,-441.6 -110.6,-659.6 -34.1,-213.5 -74.8,-429.3 -123.6,-639.8 -832.9,112.6 -1275.2,179.6 -2049.09,511.7 -248.12,117.7 -616.57,337.7 -782.14,557.5 -30.12,423.8 -61.43,859.7 -129.32,1279"
       style="fill:#f7ee8e;fill-opacity:1;fill-rule:nonzero;stroke:none"
       id="path226" />
    <path
       d="m 9502.23,11050.9 c 207.78,-122.1 419.32,-243.8 641.17,-338.8 458.4,-196.3 1142.4,-349.6 1638.5,-319.7 -34.1,-213.5 -74.8,-429.3 -123.6,-639.8 -832.9,112.6 -1275.2,179.6 -2049.09,511.7 -20.99,263.4 -67.36,525.5 -106.98,786.6"
       style="fill:#f8a80e;fill-opacity:1;fill-rule:nonzero;stroke:none"
       id="path228" />
    <path
       d="m 20180,14716.7 c 131.9,-60.4 264.2,-128.5 405.3,-164 163.6,-30.3 327.1,-58.8 492.9,-73.5 -163.8,-750.2 -727.8,-1620.3 -1368.6,-2030.5 -435.2,-278.5 -957.4,-344 -1457.6,-230.5 -85.4,20.2 -169.7,44.3 -252.7,72.5 -83.1,28.1 -164.7,60.2 -244.7,96.1 -17.6,122 -25,244 -39.5,366.2 -19.3,106.2 -16.5,224.9 -23.1,333.2 67.9,-37.2 138,-69.3 210.5,-96.3 72.5,-27 146.6,-48.7 222.3,-64.9 399.2,-89.3 788,-33.6 1134.8,187.8 598.1,381.7 777.6,946.9 920.4,1603.9"
       style="fill:#3d63b7;fill-opacity:1;fill-rule:nonzero;stroke:none"
       id="path230" />
    <path
       d="m 20180,14716.7 c 131.9,-60.4 264.2,-128.5 405.3,-164 -42.4,-150.6 -112.4,-294.5 -180.4,-435.1 -238.5,-493 -560.2,-974.7 -1049.8,-1246.6 -373.4,-207.3 -814.4,-253 -1232.9,-191.5 -134.7,19.7 -272.5,62.5 -407.1,73.5 -19.3,106.2 -16.5,224.9 -23.1,333.2 67.9,-37.2 138,-69.3 210.5,-96.3 72.5,-27 146.6,-48.7 222.3,-64.9 399.2,-89.3 788,-33.6 1134.8,187.8 598.1,381.7 777.6,946.9 920.4,1603.9"
       style="fill:#88c6ee;fill-opacity:1;fill-rule:nonzero;stroke:none"
       id="path232" />
    <path
       d="m 6752.06,10037.7 c -218.17,396.3 -413.34,1097.5 -448.61,1546.3 -4.35,49.9 -6.86,99.8 -7.53,149.9 -0.67,50 0.5,100 3.52,150 3,50 7.84,99.8 14.52,149.4 6.68,49.6 15.17,98.9 25.47,147.9 89.93,414.9 333.58,798.5 695.96,1026.8 300.25,189.2 836.22,338.3 1187.92,259.9 27.43,-25.5 24.75,-46.1 31.37,-82.3 4.8,-154.4 22.96,-308 38.49,-461.6 -353.79,-15.3 -731.83,-84.1 -981.13,-359.7 -200.98,-222.2 -270.48,-523.8 -252.96,-816.8 22.2,-371.1 138.04,-742.6 265.59,-1089.9 -169,-130.7 -306.22,-275.4 -449.81,-432.6 -48.14,-57.1 -84.29,-123.5 -122.8,-187.3"
       style="fill:#3d63b7;fill-opacity:1;fill-rule:nonzero;stroke:none"
       id="path234" />
    <path
       d="m 6752.06,10037.7 c -218.17,396.3 -413.34,1097.5 -448.61,1546.3 -4.35,49.9 -6.86,99.8 -7.53,149.9 -0.67,50 0.5,100 3.52,150 3,50 7.84,99.8 14.52,149.4 6.68,49.6 15.17,98.9 25.47,147.9 89.93,414.9 333.58,798.5 695.96,1026.8 300.25,189.2 836.22,338.3 1187.92,259.9 27.43,-25.5 24.75,-46.1 31.37,-82.3 -6.74,-8.6 -10.58,-20.6 -20.23,-25.7 -61.62,-32.3 -340.91,-41 -435.36,-62.4 -998.28,-226.8 -1334.77,-997.4 -1223.24,-1954.1 32.02,-274.5 98.49,-561.4 186.05,-823.9 32.61,-97.8 89.28,-195.7 112.96,-294.5 -48.14,-57.1 -84.29,-123.5 -122.8,-187.3"
       style="fill:#88c6ee;fill-opacity:1;fill-rule:nonzero;stroke:none"
       id="path236" />
    <path
       d="m 9817.62,4012.1 c -89.99,681.8 -59.8,835.3 202.98,1466.3 61.9,148.6 116.6,315.2 199.5,452.7 32.1,10.3 44.2,-2.3 74.1,-14.9 205,2.8 514.9,-78.5 725.8,-114.2 -189.1,-376.1 -340.1,-743.5 -461.5,-1146.7 131.2,-249.4 265.9,-497.3 383.2,-753.7 166.6,-364.3 299.9,-735.8 426.8,-1115.3 -251.2,-51.7 -501.9,-97.7 -756.6,-129.2 -18.4,165.5 -58,321.2 -102.7,480.9 22.2,4.9 38.1,10.8 57.9,22 19.2,72.1 -86,249.7 -116.8,321.3 -213.9,236.6 -374.3,351.3 -632.68,530.8"
       style="fill:#4b7cc7;fill-opacity:1;fill-rule:nonzero;stroke:none"
       id="path238" />
    <path
       d="m 10294.2,5916.2 c 205,2.8 514.9,-78.5 725.8,-114.2 -189.1,-376.1 -340.1,-743.5 -461.5,-1146.7 131.2,-249.4 265.9,-497.3 383.2,-753.7 166.6,-364.3 299.9,-735.8 426.8,-1115.3 -251.2,-51.7 -501.9,-97.7 -756.6,-129.2 -18.4,165.5 -58,321.2 -102.7,480.9 22.2,4.9 38.1,10.8 57.9,22 19.2,72.1 -86,249.7 -116.8,321.3 161.6,-90.3 341.9,-303.7 490.5,-429.8 -124.6,560.1 -369.5,1091.3 -624.6,1602.7 54.5,368.5 230.3,744.5 360.8,1091.7 -123.8,65.1 -257.2,108.7 -382.8,170.3"
       style="fill:#28429d;fill-opacity:1;fill-rule:nonzero;stroke:none"
       id="path240" />
    <path
       d="m 7976.57,2811.3 c 92.29,292.5 266.64,511.7 516.77,688.7 349.98,247.7 761.76,320.5 1179.83,249.7 294.82,-38.9 584.33,-264.3 759.63,-494 28.8,-37.7 55.3,-75.1 76.4,-117.7 44.7,-159.7 84.3,-315.4 102.7,-480.9 -669.8,-98.2 -1376.53,-108.7 -2052.68,-88.9 -210.46,6.2 -420.08,23.6 -630.44,31 9.6,71.2 30.79,142.3 47.79,212.1"
       style="fill:#88c6ee;fill-opacity:1;fill-rule:nonzero;stroke:none"
       id="path242" />
    <path
       d="m 7976.57,2811.3 c 92.29,292.5 266.64,511.7 516.77,688.7 349.98,247.7 761.76,320.5 1179.83,249.7 -114.85,-68.8 -487.14,-85.3 -682.89,-161.4 371.36,-15.8 682.27,-92.6 949.77,-367.8 -611.07,-437 -1172.76,-539.7 -1911.41,-418.5 -17.4,2.8 -34.76,5.9 -52.07,9.3"
       style="fill:#ffffff;fill-opacity:1;fill-rule:nonzero;stroke:none"
       id="path244" />
    <path
       d="m 20139.7,16836.2 c 247.9,-110.1 457.2,-164.5 728.2,-121.8 152.4,-233.3 188.1,-498.6 130.6,-769 -18,-84.5 -43.7,-168 -69.1,-250.5 70.6,72.6 135.3,145.4 190.8,230.4 64.2,133.1 96,275.5 64.3,421.7 -17.2,52.2 -33.2,105.2 -52.7,156.6 265.1,-60.4 354.1,-86.8 560.7,-273.7 153.7,-117.9 351.8,-213.8 551.1,-188.4 208.6,26.6 395.5,165 522.7,325.5 -228.2,-500.2 -451.7,-945.3 -998,-1146.7 -386.5,-142.6 -879.9,-109.2 -1251.4,65.3 -267.5,125.7 -502.9,333.3 -675.6,571.5 87.9,-8.9 192.1,-82.2 281.9,-106.9 93.9,-25.8 189.6,-21.1 274.6,28.9 91.3,53.7 126.3,128.2 147.3,229.3 82.2,394.7 -218.8,539.6 -393,808.1 -4.2,6.5 -8.2,13.1 -12.4,19.7"
       style="fill:#a5b2c3;fill-opacity:1;fill-rule:nonzero;stroke:none"
       id="path246" />
    <path
       d="m 21184.5,16347 c 237.8,1.9 319.3,-12.3 501.1,-172.8 114.7,-95 319.8,-201.3 365,-349.2 -4.5,-43.5 -18.2,-67.2 -51,-94.7 -135.7,-113.6 -361.9,-137.9 -531.9,-118.2 -118,13.7 -240,50.3 -314.4,149.3 -27.6,36.7 -28.1,67 -29.9,111.1 -0.7,17.6 -2.2,35.2 -3.2,52.8 64.2,133.1 96,275.5 64.3,421.7"
       style="fill:#ffffff;fill-opacity:1;fill-rule:nonzero;stroke:none"
       id="path248" />
    <path
       d="m 19841.3,15857.1 c -77.4,83.5 -144.1,183 -200.9,281.3 -181.2,313.7 -366.1,882.7 -260.3,1244.1 38.5,131.4 119.3,224.4 241.8,285.2 306.9,152.3 788.5,159.1 1108.9,48 126.5,-43.6 266.1,-104.1 325.2,-233.6 34.8,-76.4 31.8,-163 1.7,-240.4 -46.4,-119.3 -156.2,-206.1 -272.3,-252.4 -260.5,-104 -576.4,-18.1 -830.3,64.7 l -195.2,52.4 c 121.1,-99.1 247.7,-186.4 379.8,-270.2 4.2,-6.6 8.2,-13.2 12.4,-19.7 174.2,-268.5 475.2,-413.4 393,-808.1 -21,-101.1 -56,-175.6 -147.3,-229.3 -85,-50 -180.7,-54.7 -274.6,-28.9 -89.8,24.7 -194,98 -281.9,106.9"
       style="fill:#ffffff;fill-opacity:1;fill-rule:nonzero;stroke:none"
       id="path250" />
    <path
       d="m 20730.8,17715.7 c 126.5,-43.6 266.1,-104.1 325.2,-233.6 34.8,-76.4 31.8,-163 1.7,-240.4 -46.4,-119.3 -156.2,-206.1 -272.3,-252.4 -260.5,-104 -576.4,-18.1 -830.3,64.7 221,11.8 442.2,-36.5 650.8,69.8 128.5,65.5 201.7,171.7 245.8,305 -25.7,108.2 -61.6,192.8 -120.9,286.9"
       style="fill:#a5b2c3;fill-opacity:1;fill-rule:nonzero;stroke:none"
       id="path252" />
    <path
       d="m 7921.74,12522.9 c 137.82,37.1 273.53,55.9 416.46,46.8 20.01,-142.4 44.3,-285.8 59.39,-428.8 41.64,-240.5 70.49,-482.5 86.55,-726 33.86,-131.5 36.67,-277.6 48.97,-412.8 11.49,-82.8 16.79,-165.5 22.08,-248.9 -32.19,19.5 -64.73,38.4 -97.6,56.7 -292.12,161 -542,161.7 -856.76,69.5 -114.82,320.2 -201.94,657.5 -211.04,998.4 -1.85,119.3 32.23,241.1 89.13,345.4 116.33,157.1 264.06,232.9 442.82,299.7"
       style="fill:#f9d628;fill-opacity:1;fill-rule:nonzero;stroke:none"
       id="path254" />
    <path
       d="m 7921.74,12522.9 c 137.82,37.1 273.53,55.9 416.46,46.8 20.01,-142.4 44.3,-285.8 59.39,-428.8 41.64,-240.5 70.49,-482.5 86.55,-726 -345.76,257.2 -661.85,549.7 -1005.22,808.3 116.33,157.1 264.06,232.9 442.82,299.7"
       style="fill:#985e37;fill-opacity:1;fill-rule:nonzero;stroke:none"
       id="path256" />
    <path
       d="m 7921.74,12522.9 c 137.82,37.1 273.53,55.9 416.46,46.8 20.01,-142.4 44.3,-285.8 59.39,-428.8 -3.79,-7.1 -10.83,-11.9 -16.66,-17.5 -115.3,68 -369.31,295.5 -459.19,399.5"
       style="fill:#f9d628;fill-opacity:1;fill-rule:nonzero;stroke:none"
       id="path258" />
    <path
       d="m 7478.92,12223.2 c 343.37,-258.6 659.46,-551.1 1005.22,-808.3 33.86,-131.5 36.67,-277.6 48.97,-412.8 -24.68,0 -43.61,3.6 -66.05,14.9 -72.2,36.3 -149.77,117.9 -212.18,170.7 -210.44,178.1 -644.69,590.4 -865.09,690.1 -1.85,119.3 32.23,241.1 89.13,345.4"
       style="fill:#f8da0c;fill-opacity:1;fill-rule:nonzero;stroke:none"
       id="path260" />
    <path
       d="m 22405.1,17844.1 c 28.8,-0.9 57.6,-2.4 86.4,-4.7 157.4,-13.2 300.3,-81.6 402.4,-202.8 91.8,-106.8 140.5,-196.5 127.1,-339.3 -27.5,-291.9 -246.8,-655.6 -473.4,-837.7 -115.5,-92.8 -260.3,-167.5 -412.5,-149.3 -187.1,22.4 -373.9,176 -503.8,304.2 46.5,49.9 94.3,98.9 138.5,150.9 291.7,314.8 477.4,683.6 635.3,1078.7"
       style="fill:#ffffff;fill-opacity:1;fill-rule:nonzero;stroke:none"
       id="path262" />
    <path
       d="m 22893.9,17636.6 c 91.8,-106.8 140.5,-196.5 127.1,-339.3 -27.5,-291.9 -246.8,-655.6 -473.4,-837.7 -115.5,-92.8 -260.3,-167.5 -412.5,-149.3 -187.1,22.4 -373.9,176 -503.8,304.2 46.5,49.9 94.3,98.9 138.5,150.9 128.2,-55.4 254.6,-146 392.8,-173.5 97.3,-19.5 184.7,6.5 264.1,64.3 291.1,211.8 419.9,641.7 467.2,980.4"
       style="fill:#a5b2c3;fill-opacity:1;fill-rule:nonzero;stroke:none"
       id="path264" />
    <path
       d="m 21460.9,18272.3 c 92.7,20.2 189.1,43.2 284.2,46.7 149.6,5.5 259.7,-36 368.6,-138 53.9,-66 97,-129.8 130.2,-209.1 -150.5,-367 -434.2,-1066 -818.1,-1216.4 -136.8,-53.5 -289.9,-3.6 -420,48.2 76.7,68 160.7,136.1 222.1,218.5 69.7,109.3 113.8,230.8 113.7,361.8 -0.2,137.9 -46.1,252.3 -141.5,350.9 92.7,176.4 169.5,360.3 260.8,537.4"
       style="fill:#ffffff;fill-opacity:1;fill-rule:nonzero;stroke:none"
       id="path266" />
    <path
       d="m 22113.7,18181 c 53.9,-66 97,-129.8 130.2,-209.1 -150.5,-367 -434.2,-1066 -818.1,-1216.4 -136.8,-53.5 -289.9,-3.6 -420,48.2 76.7,68 160.7,136.1 222.1,218.5 26.2,4.9 52.7,9.8 78.1,17.6 385.9,119.5 623.9,820.6 807.7,1141.2"
       style="fill:#a5b2c3;fill-opacity:1;fill-rule:nonzero;stroke:none"
       id="path268" />
    <g
       id="g270">
      <g
         id="g272"
         clip-path="url(#clipPath276)">
        <path
           d="m 17179.9,3970.1 c 586.9,590.3 1930.9,1473.1 2710.7,1800.6 31.7,-55.6 57.2,-115.1 84.3,-173 -98.5,-57.6 -196.6,-114.5 -298,-166.8 -85.3,-72.2 -193.8,-130.5 -289.1,-188.9 -227.8,-139.5 -464.4,-270.3 -685.7,-419.5 -250.3,-168.8 -500.8,-351.2 -739,-536.4 -118.6,-92.3 -231.1,-198 -353.1,-284.9 -113.5,-113.8 -248.9,-213.1 -370.2,-319.5 -28.3,15.1 -64.1,34.3 -80.5,62.8 -33.9,59.1 7.4,163.2 20.6,225.6"
           style="fill:url(#linearGradient282);fill-opacity:1;fill-rule:nonzero;stroke:none"
           id="path284" />
      </g>
    </g>
    <path
       d="m 17640.4,4205.8 c -26.9,-19.6 -48.3,-30.5 -79,-41.9 134.1,119.1 290.9,217.5 434.3,325.8 137.5,103.9 265.6,218.2 407.3,317 135.2,94.2 1098.7,682.9 1173.6,685.6 -25,-27.7 -70.9,-42.3 -103.5,-61.5 91.7,-100.2 109.2,10.3 203.8,0.1 -85.3,-72.2 -193.8,-130.5 -289.1,-188.9 -227.8,-139.5 -464.4,-270.3 -685.7,-419.5 -250.3,-168.8 -500.8,-351.2 -739,-536.4 -118.6,-92.3 -231.1,-198 -353.1,-284.9 l -19.4,9.6 c -10,41.6 35.9,149.7 49.8,195"
       style="fill:#cec9c2;fill-opacity:1;fill-rule:nonzero;stroke:none"
       id="path286" />
    <path
       d="m 11094.1,2611.2 c 102.3,22.5 203.5,45.8 304,75.4 7.6,-63.6 16.9,-127.3 21.6,-191.1 -761.8,-283.3 -2223,-327.6 -3037.54,-269.4 -114.46,8.2 -322.9,1.1 -425.1,54.4 -27.25,14.2 -37.04,27.5 -45.6,57.1 -4.48,15.4 -4.14,38.6 -5.12,54.1 l 8.98,76.4 c 17.77,19 23.77,29 50.99,32.9 56.58,8.1 386.54,-33.3 471.61,-38.7 875.41,-56.1 1792.38,-4 2656.18,148.9"
       style="fill:#a5b2c3;fill-opacity:1;fill-rule:nonzero;stroke:none"
       id="path288" />
    <g
       id="g290">
      <g
         id="g292"
         clip-path="url(#clipPath296)">
        <path
           d="m 7906.34,2391.7 8.98,76.4 c 17.77,19 23.77,29 50.99,32.9 56.58,8.1 386.54,-33.3 471.61,-38.7 875.41,-56.1 1792.38,-4 2656.18,148.9 l 67.5,-9.1 0.4,-10.5 -11.4,9.4 5.2,-19.2 -21.1,23.9 5.2,-33.1 c -182.2,-65.2 -389.6,-88.7 -580.5,-118.6 -227.3,-35.6 -455.8,-75.7 -684.78,-98.8 -447.35,-45.1 -902.13,-41.4 -1350.91,-20.3 -206.74,9.7 -414.25,13.8 -617.37,56.8"
           style="fill:url(#linearGradient302);fill-opacity:1;fill-rule:nonzero;stroke:none"
           id="path304" />
      </g>
    </g>
    <path
       d="m 19781.2,15661.7 c 141.1,-105 287.8,-206.6 444.7,-286.8 282.1,-144.2 702.4,-263.2 1013,-325.5 236.8,-38.8 424.2,-31.6 654.7,33 -28,-98.4 -51.7,-237.6 -148,-293.2 -186.7,-107.8 -622.1,-77.5 -831.3,-43 -424.9,93.6 -872.6,286.5 -1152,631.7 -1.7,94.3 10.6,189.9 18.9,283.8"
       style="fill:#ffffff;fill-opacity:1;fill-rule:nonzero;stroke:none"
       id="path306" />
    <path
       d="m 21238.9,15049.4 c 236.8,-38.8 424.2,-31.6 654.7,33 -28,-98.4 -51.7,-237.6 -148,-293.2 -186.7,-107.8 -622.1,-77.5 -831.3,-43 l 13.1,-2 17.4,11 -10.9,-10.6 c 174,51 257.2,13.8 445.7,120.6 37.6,21.3 56.3,35.4 67.7,77.5 -38.2,59.6 -133.3,47.6 -189.8,91.5 -6.3,4.9 -12.4,10.1 -18.6,15.2"
       style="fill:#cec9c2;fill-opacity:1;fill-rule:nonzero;stroke:none"
       id="path308" />
    <path
       d="m 20329.9,18086.4 5,10.8 c 100.3,213.7 225.1,421 462.6,501.5 141.2,47.8 272.4,24.9 402.3,-41.9 54.5,-43.4 81.1,-87.5 107.1,-151.3 -54.9,-184.1 -172.2,-368 -262.7,-537.4 l -134.4,88.3 c -189,86.9 -375.4,107 -579.9,130"
       style="fill:#ffffff;fill-opacity:1;fill-rule:nonzero;stroke:none"
       id="path310" />
    <path
       d="m 21199.8,18556.8 c 54.5,-43.4 81.1,-87.5 107.1,-151.3 -54.9,-184.1 -172.2,-368 -262.7,-537.4 l -134.4,88.3 c 116.7,104.1 232.7,447.1 290,600.4"
       style="fill:#a5b2c3;fill-opacity:1;fill-rule:nonzero;stroke:none"
       id="path312" />
    <path
       d="m 16855.1,3661.8 c 90.4,114.9 214.8,212.2 324.8,308.3 -13.2,-62.4 -54.5,-166.5 -20.6,-225.6 16.4,-28.5 52.2,-47.7 80.5,-62.8 -86.1,-79.3 -171.7,-158 -251,-244.3 -46.7,73.7 -93.6,146.8 -133.7,224.4"
       style="fill:#a5b2c3;fill-opacity:1;fill-rule:nonzero;stroke:none"
       id="path314" />
    <path
       d="m 6904.93,9418.4 c -12.53,-85 -13.41,-274.6 -75.65,-332.5 -17.2,1.2 -23.08,-2.7 -35.27,11.6 -115.24,135 -117.58,397.2 -108.52,562.1 29.58,-122.9 119.92,-176.5 219.44,-241.2"
       style="fill:#a5b2c3;fill-opacity:1;fill-rule:nonzero;stroke:none"
       id="path316" />
    <path
       d="m 4456.59,18306.4 c 168.18,-82.1 331.91,-176.6 498.66,-262.3 674.18,-343.9 1342.57,-698.7 2005.15,-1064.3 182.96,-98.4 365.28,-197.9 546.94,-298.5 118.79,-67.3 242.53,-156.7 369.78,-204.4 l 16.24,19.4 c 36.11,-154.2 32.86,-400.4 57.86,-572.6 l 16.17,-140.9 c 61.28,-391 101.81,-787.7 140.79,-1181.4 25.42,-257 55.22,-515.2 69.92,-773.1 -550.41,25.7 -1160.78,-125.3 -1575.74,-506.6 -70.68,-64.9 -136.44,-138.6 -197.08,-213 -95.6,-129.6 -191.63,-259.7 -270.23,-400.5 -158.61,169.8 -345.54,317.7 -518.72,472.6 l -1004.7,897.6 c -621.18,562.8 -1238.47,1129.9 -1851.88,1701.1 -313.71,294.9 -619.11,598.8 -932.47,894.4 l 3200.1,-825.8 c -163.06,826.6 -387.38,1636.5 -570.79,2458.3"
       style="fill:#f8da0c;fill-opacity:1;fill-rule:nonzero;stroke:none"
       id="path318" />
    <path
       d="m 4456.59,18306.4 c 168.18,-82.1 331.91,-176.6 498.66,-262.3 674.18,-343.9 1342.57,-698.7 2005.15,-1064.3 182.96,-98.4 365.28,-197.9 546.94,-298.5 118.79,-67.3 242.53,-156.7 369.78,-204.4 l 16.24,19.4 c 36.11,-154.2 32.86,-400.4 57.86,-572.6 l 16.17,-140.9 c -8.84,-13.2 -2.34,-6.7 -23.16,-14.9 -85.93,23.2 -165.59,67.8 -247.1,103 -288.86,124.8 -569.81,266.4 -851.02,407.4 -406.37,203.6 -830.05,391.3 -1216.39,631.4 -120.58,74.9 -217.01,162.4 -322.53,255 188.69,-655 387.44,-1307 596.26,-1955.9 -137.2,32.9 -277.1,73 -417.45,89.2 -597.34,121.1 -1189.39,265.2 -1790.68,367.8 101.37,-93.5 201.56,-193.5 311.66,-276.6 491.16,-471.9 984.81,-941.3 1480.92,-1408 307.1,-291.7 599.68,-591.3 917.38,-872.5 -95.6,-129.6 -191.63,-259.7 -270.23,-400.5 -158.61,169.8 -345.54,317.7 -518.72,472.6 l -1004.7,897.6 c -621.18,562.8 -1238.47,1129.9 -1851.88,1701.1 -313.71,294.9 -619.11,598.8 -932.47,894.4 l 3200.1,-825.8 c -163.06,826.6 -387.38,1636.5 -570.79,2458.3"
       style="fill:#834227;fill-opacity:1;fill-rule:nonzero;stroke:none"
       id="path320" />
    <path
       d="m 5307.19,17164.7 c -18.98,57 -38.32,113.8 -54.9,171.6 648.93,-335.6 1296.03,-674.6 1941.28,-1017.2 l 494.58,-263.6 c 83.57,-44.6 173.37,-102.3 263.07,-131.8 l 16.17,-140.9 c -8.84,-13.2 -2.34,-6.7 -23.16,-14.9 -85.93,23.2 -165.59,67.8 -247.1,103 -288.86,124.8 -569.81,266.4 -851.02,407.4 -406.37,203.6 -830.05,391.3 -1216.39,631.4 -120.58,74.9 -217.01,162.4 -322.53,255"
       style="fill:#f9d628;fill-opacity:1;fill-rule:nonzero;stroke:none"
       id="path322" />
    <path
       d="m 3695.32,15665.8 c 601.29,-102.6 1193.34,-246.7 1790.68,-367.8 190.55,-171.6 364.64,-109.5 515.94,-380.3 -336.76,103 -671.99,226.6 -1012.63,314.7 -199.56,51.6 -406.2,85.4 -609.13,121.3 -108.72,19.2 -265.93,59.3 -373.2,35.5 -110.1,83.1 -210.29,183.1 -311.66,276.6"
       style="fill:#f9d628;fill-opacity:1;fill-rule:nonzero;stroke:none"
       id="path324" />
    <path
       d="m 11545.8,2901.7 c 453.4,-4.7 907,7.3 1360.5,4.4 1121.1,-3.8 2240.8,-45.9 3359,-126.3 648.6,-51.5 1297.5,-110.5 1934.9,-245.5 244.8,-51.8 672.4,-139.6 850.4,-318 28.6,-28.6 51.9,-65.3 54.4,-106.8 3.4,-55.9 -31.5,-103.3 -71,-139 -274,-247.6 -995.5,-362 -1364.3,-421.9 -1118,-181.8 -2241.4,-241.2 -3371.7,-276.5 -693.6,-25.4 -1387.4,-32.2 -2081.4,-20.4 -693.9,11.8 -1387,42.3 -2079.3,91.3 -612.53,46.8 -2694.36,224.7 -3088.95,661.7 -34.2,37.9 -54.85,78.5 -54.14,130.2 0.86,64.4 55.33,123.1 102.01,160.9 143.22,115.9 334.34,166.4 507.64,218.8 4.26,-102.2 -2.41,-227.1 28.45,-324.9 24.93,-79 76.95,-121.9 149.92,-156.9 188.21,-90.1 441.3,-88.6 646.36,-101.8 1009.75,-65.2 2221.61,17.7 3178.81,367.4 -9.9,202.2 -30.4,403.3 -61.6,603.3"
       style="fill:#a5b2c3;fill-opacity:1;fill-rule:nonzero;stroke:none"
       id="path326" />
    <path
       d="m 3312.57,8243.2 c 351.92,377.1 725.98,733.5 1091.43,1097.2 261.08,259.9 515.89,526 777.95,784.8 289.13,281.2 580.05,560.5 872.75,838 38.7,-145.8 84.61,-289.3 137.71,-430.5 27.15,-81.3 57.39,-161.1 88.23,-241 65.85,-172 137.15,-327.4 234.53,-484.8 -84.74,-222.5 -137.49,-493.6 -31.48,-719.3 57.41,-122.2 141.23,-180.6 248.56,-252.3 12,-70.2 21.77,-144.2 44.88,-211.7 114.12,-333.2 397.87,-620.6 577.93,-920.7 112.42,-161.6 236.22,-282.5 427.37,-344.6 -169.91,-119.9 -322.34,-298 -471.2,-443.3 -342.18,-331.8 -680.6,-667.3 -1015.26,-1006.6 L 3498.13,3158.5 c 271.16,552 537.31,1106.3 798.45,1663 113.47,243.5 253.38,627 384.82,841.7 20.49,106.3 126.56,283.8 173.96,389.7 127.05,285.2 255.54,569.7 385.48,853.6 112.51,247.7 237.14,493.9 304.81,758.5 -105.72,15.5 -214.91,52 -318.86,78.4 -210.21,52.8 -419.95,107.4 -629.21,163.8 -427.52,114.8 -858.84,216.4 -1285.01,336"
       style="fill:#f8a80e;fill-opacity:1;fill-rule:nonzero;stroke:none"
       id="path328" />
    <path
       d="m 6280.64,10291.7 c 65.85,-172 137.15,-327.4 234.53,-484.8 -84.74,-222.5 -137.49,-493.6 -31.48,-719.3 57.41,-122.2 141.23,-180.6 248.56,-252.3 12,-70.2 21.77,-144.2 44.88,-211.7 114.12,-333.2 397.87,-620.6 577.93,-920.7 -183.39,-97.2 -324.28,-313.3 -468.83,-462.1 -124.33,-127.9 -257.34,-247.6 -383.74,-373.5 -239.79,-238.8 -476.95,-485.6 -704.52,-736.1 -206.59,-227.4 -382.82,-485.4 -593.33,-707 243.41,473.4 468.22,955.7 706.71,1431.4 246.54,491.8 507.05,977.7 728.73,1481.4 -193.08,47.2 -393.38,69.4 -587.79,112.8 -446.71,99.9 -885.77,215.5 -1337.72,292 71.02,106.6 174.73,199.3 264.53,290.5 189.98,193.1 384.52,380.3 578.15,569.5 232.26,227 460.09,500 723.39,689.9"
       style="fill:#f8da0c;fill-opacity:1;fill-rule:nonzero;stroke:none"
       id="path330" />
    <path
       d="m 3312.57,8243.2 c 351.92,377.1 725.98,733.5 1091.43,1097.2 261.08,259.9 515.89,526 777.95,784.8 289.13,281.2 580.05,560.5 872.75,838 38.7,-145.8 84.61,-289.3 137.71,-430.5 -382.23,-431.9 -809.18,-817.7 -1218.45,-1223.2 -274.79,-272.3 -532.95,-571.6 -828.65,-821 L 5287.7,8221.4 c 248.46,-57.1 498.73,-122.5 751.59,-156 -64.47,-135 -132.19,-268.5 -203.15,-400.3 -4.08,-1.6 -8.36,-2.8 -12.28,-4.8 -21.21,-10.7 -29.04,-26.3 -41.66,-45.5 -84.58,-8.8 -165.18,63.1 -236.55,50.2 -105.72,15.5 -214.91,52 -318.86,78.4 -210.21,52.8 -419.95,107.4 -629.21,163.8 -427.52,114.8 -858.84,216.4 -1285.01,336"
       style="fill:#834227;fill-opacity:1;fill-rule:nonzero;stroke:none"
       id="path332" />
    <g
       id="g334"
       style="display:inline">
      <g
         id="g336"
         clip-path="url(#clipPath340)">
        <path
           d="m 5545.65,7665 c 71.37,12.9 151.97,-59 236.55,-50.2 12.62,19.2 20.45,34.8 41.66,45.5 3.92,2 8.2,3.2 12.28,4.8 -55.3,-136.5 -133.55,-268.2 -202.31,-398.7 -149.99,-284.7 -306.29,-565.5 -460.49,-847.9 -84.43,-154.6 -221.51,-448.2 -318.17,-572.4 l 5.11,-9 -1.7,12.7 -19.46,-18.5 c -14.13,103.3 313.25,421 233.76,544.2 -27.39,1.4 -19.29,6.3 -37.08,-9.4 -97.06,-85.8 -280.08,-694.4 -354.4,-702.9 20.49,106.3 126.56,283.8 173.96,389.7 127.05,285.2 255.54,569.7 385.48,853.6 112.51,247.7 237.14,493.9 304.81,758.5"
           style="fill:url(#linearGradient346);fill-opacity:1;fill-rule:nonzero;stroke:none"
           id="path348" />
      </g>
    </g>
  </g>
</svg>
